<svg preserveAspectRatio="none" width="100%" height="100%" overflow="visible" style="display: block;" viewBox="0 0 16 16" fill="none" xmlns="http://www.w3.org/2000/svg">
<g id="SVG">
<g id="Vector">
<path fill-rule="evenodd" clip-rule="evenodd" d="M6.27501 3.09871C6.73524 2.61931 7.3561 2.35298 8.00008 2.35298C8.644 2.35298 9.26488 2.61931 9.72512 3.09871C10.1169 3.50679 10.3645 4.04078 10.4298 4.61267H5.57024C5.63562 4.04078 5.88326 3.50679 6.27501 3.09871V3.09871M4.79989 5.36566V6.68262C4.79989 6.89055 4.96846 7.05911 5.17638 7.05911C5.38431 7.05911 5.55287 6.89055 5.55287 6.68262V5.36566H10.4473V6.68262C10.4473 6.89055 10.6158 7.05911 10.8238 7.05911C11.0317 7.05911 11.2002 6.89055 11.2002 6.68262V5.36566H12.7433L13.5195 12.8174C13.5658 13.2618 13.2173 13.6485 12.7706 13.6485H3.22936C2.78264 13.6485 2.43415 13.2618 2.48043 12.8174L3.25666 5.36566H4.79989V5.36566M4.81345 4.61267C4.88147 3.84888 5.20339 3.1277 5.73182 2.57725C6.33067 1.95345 7.14625 1.6 8.00008 1.6C8.85384 1.6 9.66944 1.95345 10.2683 2.57725C10.7967 3.1277 11.1186 3.84888 11.1866 4.61267H13.0826C13.2754 4.61267 13.437 4.75837 13.457 4.95016L14.2684 12.7394C14.361 13.6281 13.664 14.4014 12.7706 14.4014H3.22936C2.33592 14.4014 1.63894 13.6281 1.7315 12.7394L2.54289 4.95016C2.56286 4.75837 2.72452 4.61267 2.91735 4.61267H4.81345V4.61267" fill="white"/>
<path d="M6.27501 3.09871C6.73524 2.61931 7.3561 2.35298 8.00008 2.35298C8.644 2.35298 9.26488 2.61931 9.72512 3.09871C10.1169 3.50679 10.3645 4.04078 10.4298 4.61267H5.57024C5.63562 4.04078 5.88326 3.50679 6.27501 3.09871V3.09871M4.79989 5.36566V6.68262C4.79989 6.89055 4.96846 7.05911 5.17638 7.05911C5.38431 7.05911 5.55287 6.89055 5.55287 6.68262V5.36566H10.4473V6.68262C10.4473 6.89055 10.6158 7.05911 10.8238 7.05911C11.0317 7.05911 11.2002 6.89055 11.2002 6.68262V5.36566H12.7433L13.5195 12.8174C13.5658 13.2618 13.2173 13.6485 12.7706 13.6485H3.22936C2.78264 13.6485 2.43415 13.2618 2.48043 12.8174L3.25666 5.36566H4.79989V5.36566M4.81345 4.61267C4.88147 3.84888 5.20339 3.1277 5.73182 2.57725C6.33067 1.95345 7.14625 1.6 8.00008 1.6C8.85384 1.6 9.66944 1.95345 10.2683 2.57725C10.7967 3.1277 11.1186 3.84888 11.1866 4.61267H13.0826C13.2754 4.61267 13.437 4.75837 13.457 4.95016L14.2684 12.7394C14.361 13.6281 13.664 14.4014 12.7706 14.4014H3.22936C2.33592 14.4014 1.63894 13.6281 1.7315 12.7394L2.54289 4.95016C2.56286 4.75837 2.72452 4.61267 2.91735 4.61267H4.81345V4.61267" stroke="none"/>
</g>
</g>
</svg>
