<svg preserveAspectRatio="none" width="100%" height="100%" overflow="visible" style="display: block;" viewBox="0 0 20 20" fill="none" xmlns="http://www.w3.org/2000/svg">
<g id="SVG">
<path id="Vector" fill-rule="evenodd" clip-rule="evenodd" d="M9.99856 1.98535C8.716 1.98535 7.64364 2.34786 6.89243 3.09957C6.14127 3.85123 5.7793 4.92394 5.7793 6.20632C5.7793 7.48871 6.14128 8.56107 6.89255 9.31234C7.64382 10.0636 8.71617 10.4256 9.99856 10.4256C11.2809 10.4256 12.3536 10.0636 13.1053 9.31245C13.857 8.56125 14.2195 7.48888 14.2195 6.20632C14.2195 4.92377 13.857 3.85106 13.1054 3.09945C12.3538 2.34785 11.2811 1.98535 9.99856 1.98535V1.98535M6.7793 6.20632C6.7793 5.10783 7.08652 4.32005 7.59977 3.80644C8.11298 3.29289 8.90025 2.98535 9.99856 2.98535C11.0969 2.98535 11.8847 3.2929 12.3983 3.80656C12.912 4.32022 13.2195 5.108 13.2195 6.20632C13.2195 7.30463 12.912 8.0919 12.3984 8.60511C11.8848 9.11837 11.0971 9.42559 9.99856 9.42559C8.90008 9.42559 8.1128 9.11838 7.59966 8.60523C7.08651 8.09208 6.7793 7.3048 6.7793 6.20632V6.20632M10.0002 12.1582C8.4532 12.1582 6.94958 12.6693 5.72306 13.612C4.49653 14.5548 3.61584 15.8763 3.21788 17.3712C3.14684 17.638 3.30558 17.912 3.57243 17.983C3.83928 18.054 4.11319 17.8953 4.18422 17.6284C4.52548 16.3465 5.28069 15.2133 6.33246 14.4049C7.38423 13.5965 8.67362 13.1582 10.0002 13.1582C11.3267 13.1582 12.6161 13.5965 13.6679 14.4049C14.7196 15.2133 15.4749 16.3465 15.8161 17.6284C15.8871 17.8953 16.1611 18.054 16.4279 17.983C16.6948 17.912 16.8535 17.638 16.7825 17.3712C16.3845 15.8763 15.5038 14.5548 14.2773 13.612C13.0508 12.6693 11.5471 12.1582 10.0002 12.1582V12.1582" fill="var(--fill-0, black)"/>
</g>
</svg>
