<svg preserveAspectRatio="none" width="100%" height="100%" overflow="visible" style="display: block;" viewBox="0 0 90 51.5" fill="none" xmlns="http://www.w3.org/2000/svg">
<g id="SVG" clip-path="url(#clip0_0_4)">
<path id="Vector" d="M8.66571 27.5371H10.3757V30.79H4.33286V27.5371H6.01714V25.6343H0.642857V27.5371H2.35286V37.1029H0.642857V38.9929H6.01714V37.1029H4.32V32.6671H10.3629V37.1029H8.66571V38.9929H14.0657V37.1029H12.3429V27.5371H14.0529V25.6343H8.66571V27.5371M73.5043 37.1029H68.2071V32.6414H72.7586V30.7643H68.1943V27.5371H73.5429V29.3629H75.42V25.6343H64.44V27.5371H66.2271V37.1029H64.4271V38.9929H75.4457V34.5443H73.5043V37.1029M27.5786 34.5443H25.6371V37.1029H20.34V32.6414H24.8914V30.7643H20.34V27.5371H25.6757V29.3629H27.5529V25.6343H16.5857V27.5371H18.3857V37.1029H16.5857V38.9929H27.5914L27.5786 34.5443M68.7343 24.9786H72.5786L71.5886 23.7957H67.6286L68.7343 24.9786M86.1429 31.3557C84.8057 30.97 83.8543 31.06 82.4914 30.61C81.2571 30.1857 81.0129 29.4271 81.0129 28.9386C81.0129 28.4243 81.5529 27.1129 83.4943 27.1129C85.4357 27.1129 86.7086 28.3986 86.7857 29.53H88.65V25.6214H86.85V26.47L86.9014 26.7271C86.8407 26.5985 86.753 26.4845 86.6443 26.3929C86.0786 25.8786 84.9857 25.3129 83.3529 25.3129C81.36 25.3129 79.02 26.5471 79.02 28.9129C79.02 31.24 80.6914 32.05 82.1186 32.4357C83.5329 32.8086 84.2657 32.8086 85.4614 33.13C86.6443 33.4514 87.4157 34.1586 87.4157 35.2257C87.4157 36.2286 86.7986 37.54 84.2786 37.54C81.7714 37.54 80.7814 36.19 80.4857 34.2486H78.6986V38.9929H80.55V38.0929L80.4729 37.8614C80.3186 38.08 80.5371 38.0157 80.7557 38.17L80.7686 38.1957C81.7071 38.9157 82.9414 39.3914 84.5229 39.3914C86.2843 39.3914 89.37 38.4914 89.37 35.2771C89.37 32.9886 88.1486 31.9086 86.1557 31.3429L86.1429 31.3557M56.4814 37.1029V38.9929H61.9329V37.1029H60.1457V27.5371H61.9329V25.6343H57.06L53.8329 33.4386L53.7686 33.8243L53.7043 33.4386L50.4771 25.6343H45.6043V27.5371H47.3914V37.1029H45.6043V38.9929H51.0557V37.1029H49.3457V28.3086L49.3586 27.73L49.5129 28.1929L53.2414 37.0771H54.2957L58.0243 28.18L58.1529 27.7171L58.1786 28.2443V37.1029H56.4814M19.2471 20.0029V20.44H21.0857C20.9029 20.303 20.727 20.1572 20.5586 20.0029H19.2471V20.0029M68.76 20.0157H67.8086C67.5514 20.0671 67.3457 20.2986 67.32 20.44H68.76V20.0157V20.0157M19.2471 21.7257H68.7471V20.8H36.9257C36.1157 21.1857 35.0743 21.16 34.2771 20.8H24.6086C23.6957 21.1857 22.6414 21.1857 21.7286 20.8H19.26V21.7129L19.2471 21.7257M33.1843 20.0029H25.7143C25.6886 20.0543 25.3414 20.35 25.2 20.44H33.66C33.4846 20.3138 33.3249 20.167 33.1843 20.0029V20.0029" fill="var(--fill-0, black)"/>
<path id="Vector_2" d="M20.0957 16.57C20.0014 16.861 19.9494 17.1642 19.9414 17.47C19.9414 19.2369 21.3759 20.6714 23.1429 20.6714C24.9098 20.6714 26.3443 19.2369 26.3443 17.47C26.3443 17.0971 26.2671 16.7371 26.1386 16.4029C26.5114 16.3386 26.8714 16.2743 27.2186 16.1586C27.3857 16.12 27.3857 16.0429 27.2571 16.0043C26.7814 15.8629 26.28 15.7471 25.7657 15.6443C25.1675 14.7877 24.1876 14.2786 23.1429 14.2814C22.7314 14.2814 22.3457 14.3714 21.9857 14.5129V14.5C21.8316 14.233 21.8126 13.9089 21.9343 13.6257C22.2557 13.1114 22.9757 12.8929 23.58 12.8543C23.7729 12.8286 24.2486 12.8543 24.3 12.9186C24.4286 13.0086 24.6214 13.0471 24.8271 12.97C25.0329 13.0471 25.0843 13.0986 25.3157 13.1757C27.3471 13.87 29.61 14.23 31.8857 13.8186C32.2457 14.1529 32.4386 14.7443 32.6829 15.1557C32.76 15.2586 32.8371 15.0786 33.9686 15.0271H35.2543C34.4056 15.1309 33.6494 15.613 33.1971 16.3386C32.49 16.5571 31.95 16.7757 31.7443 16.9043C31.4871 17.0457 31.4486 17.1357 31.7443 17.2129C32.1043 17.3029 32.4514 17.3671 32.7986 17.4057C32.7696 17.5498 32.7524 17.696 32.7471 17.8429C32.7471 19.4075 34.0175 20.6779 35.5821 20.6779C37.1468 20.6779 38.4171 19.4075 38.4171 17.8429C38.4171 17.3543 38.2886 16.8914 38.07 16.4929C38.43 16.3643 38.8029 16.2357 39.2014 16.0686C39.51 16.1843 39.7157 16.3643 39.9471 16.6214C40.1271 16.8271 40.5257 16.75 40.77 16.6857C41.1557 16.5829 41.22 16.2743 41.22 15.9143C41.22 15.76 41.22 15.5929 41.31 15.4643C41.76 14.4229 43.5986 14.2814 44.5371 14.05C44.5371 14.05 44.0486 14.6414 43.7014 14.7829C43.6243 16.3 43.0457 17.6243 42.9686 19.09C43.4186 19.1029 43.3929 19.6043 43.5086 19.8871C43.38 20.1443 43.1614 19.8871 42.9686 19.9771C42.3 19.5914 43.1357 19 42.5829 18.5371C42.8657 17.3157 43.3286 16.12 43.29 14.8343C43.11 14.8471 43.0457 15.04 42.9686 15.1814C42.84 16.4157 42.4929 17.5343 42.1714 18.6529C42.3129 18.73 42.5571 18.8071 42.5571 19.0129C42.12 19.2829 42.5571 19.7071 42.39 20.0157H38.0186L37.5171 20.4529H44.2414L44.3057 20.1957C43.3157 19.1671 43.6886 17.6243 44.1386 16.4671L45.2957 14.8986C46.2471 14.5257 46.8386 13.3557 47.8543 12.9829C47.8543 13.4971 47.2243 13.7029 46.89 13.9857C46.5429 14.8086 45.4243 14.8986 45.2571 15.8243C45.6814 16.3257 46.3243 16.6471 46.8514 17.11C47.4043 17.4443 47.2114 18.1386 47.6486 18.5114C47.7257 18.6143 47.6486 18.7686 47.52 18.8586C47.0571 18.9743 47.07 19.2829 47.3529 19.5529C47.5329 19.72 47.7386 19.9386 47.7129 20.0157H44.6271C44.6271 20.1571 44.7557 20.2086 44.8843 20.4529H61.9843C62.1129 20.2086 61.8557 19.9386 61.7271 19.6814C60.5186 19.2314 60.5186 18.0871 60.4414 16.8271C60.4671 16.7757 60.3771 16.66 60.39 16.4029C59.7913 15.2393 59.5796 13.9151 59.7857 12.6229L60.0429 12.1086C60.3 11.7486 60.03 11.5557 60.21 11.1829L63.81 10.4886C63.8743 10.45 63.8614 10.3086 63.7971 10.2314L62.6914 10.45C61.5285 9.9426 60.5052 9.16191 59.7086 8.17429C59.9657 6.38714 59.8371 4.94714 59.6571 3.98286C60.1843 3.54571 60.6214 3.12143 60.6214 3.12143C60.9814 3.34 61.0586 3.25 61.11 3.12143C61.0586 3.05714 60.5186 2.82571 60.5957 2.59429C60.9429 2.68429 61.02 2.58143 61.0714 2.38857L60.8271 2.29857L60.8657 2.17C60.93 2.04143 61.2514 2.17 61.38 2.13143C61.5986 2.00286 61.3543 1.79714 61.4186 1.61714C60.9171 1.21857 60.0171 1.19286 59.4643 0.807143C59.2971 0.485714 59.2329 0.357143 59.0529 0.228571C58.696 0.0949027 58.314 0.0422038 57.9343 0.0742857C57.78 0.125714 57.51 0.382857 57.51 0.382857C56.9314 0.511429 56.5971 0.318571 56.1986 0.0871429C56.1986 0.0871429 56.2886 0.537143 56.7257 0.73C56.34 0.884286 56.16 1.21857 56.0957 1.63C55.5557 1.75857 55.53 2.29857 55.6071 2.53C55.1571 2.8 55.1957 3.16 55.35 3.52C54.9643 3.77714 55.0157 4.16286 55.1314 4.45857C54.7971 4.66429 55.1314 5.23 55.1829 5.57714C56.1471 5.37143 57.3429 7.50571 59.0657 7.76286C59.3871 6.24571 58.9886 5.5 58.6157 4.75429C58.8986 4.58714 59.1943 4.36857 59.49 4.13714C59.67 5.08857 59.7857 6.47714 59.5929 8.05857L59.5671 8.03286C59.4514 8.03286 59.3486 7.95571 59.2586 7.91714C59.2714 7.96857 59.4771 8.29 59.4386 8.34143C59.4386 8.34143 58.8729 8.71429 57.7671 8.25143C57.4714 8.94571 53.6786 10.6429 53.6786 10.6429C53.8071 11.6843 54.3214 12.3786 54.8357 12.9571C55.6457 13.5614 56.5071 13.8571 57.5357 14.0886C57.7671 14.6414 58.4614 16.4929 58.5257 16.7886C58.59 17.0971 58.7571 17.0971 58.7571 17.0971C58.86 17.2257 59.1814 17.8171 59.22 18.1L59.2971 19.1029C59.3357 19.3343 59.6314 19.1671 59.6829 19.36L59.5543 20.0286H48.1629C48.33 19.2314 47.9186 18.5371 48.1371 17.83C47.6743 17.0329 46.4271 16.48 46.6457 15.4386C47.25 14.6029 49.1271 13.7929 48.7029 12.7771C50.4 11.9157 51.3 13.3557 52.92 13.2529C53.4857 13.2271 54.1157 13.1629 54.63 13.0086C53.9692 12.4247 53.4353 11.7114 53.0614 10.9129C49.7199 12.3128 46.2548 13.3976 42.7114 14.1529L42.4286 14.05C40.6086 14.4211 38.8067 14.8758 37.0286 15.4129C36.7467 15.2451 36.4378 15.1276 36.1157 15.0657H36.2057C36.5529 15.0657 37.08 14.8857 37.4529 14.7571C39.0214 14.1786 39.6 11.9414 40.3071 10.5143C40.9243 12.7257 42.3514 12.9057 43.1871 12.6357L43.2643 13.33C43.4829 13.87 43.9843 13.3043 44.5243 13.0857C44.4729 12.9571 44.3957 12.5971 44.3443 12.1471L45.0129 11.7614C45.0514 12.2757 45.09 12.79 44.9357 13.0471L46.8 12.5457C47.16 10.9257 48.1371 8.68857 49.86 7.04286C48.3742 6.37409 46.6397 6.58718 45.36 7.59571C43.1743 8.29 43.0971 11.2986 43.1743 12.34C42.7886 12.4171 41.1943 12.97 40.4486 10.2186C40.972 9.04392 41.7137 7.97935 42.6343 7.08143C42.7243 7.00429 42.6343 6.90143 42.4414 7.00429C40.5771 8.29 39.8829 10.5529 38.88 12.4686C38.1626 13.6661 36.8251 14.3498 35.4343 14.23C33.4286 14.2043 32.4771 12.1214 31.5514 10.7586C30.15 7.69857 26.5371 8.80429 23.8371 8.14857C23.6829 8.07143 23.3871 7.18429 22.95 7.21C22.6414 7.23571 22.9371 7.54429 22.7571 7.66C22.4229 7.51857 22.14 7.27429 21.7157 7.33857C21.4457 7.39 21.3686 7.67286 21.3943 7.91714C21.6 8.89429 22.6543 9.33143 23.4257 9.67857C23.7343 10.1286 23.6186 11.6714 23.3743 12.1986C23.0529 12.79 21.78 12.5843 21.5357 13.9343C21.4938 14.1902 21.5391 14.4529 21.6643 14.68C21.1727 14.938 20.7563 15.319 20.4557 15.7857C19.9157 15.9143 19.3886 16.0557 18.9129 16.2357C18.7843 16.2743 18.7843 16.3643 18.9386 16.39L20.0957 16.5829V16.57M60.0171 8.98429C60.48 9.49857 61.5857 10.2571 62.2929 10.5143L60.2357 10.8871C60.48 10.0129 59.6957 9.69143 60.0171 8.98429V8.98429M60.2357 1.96429C60.3129 1.92571 60.5314 2.01571 60.6214 2.02857C60.6729 2.04143 60.66 2.15714 60.6214 2.26C60.4929 2.29857 60.2871 2.22143 60.2614 2.14429C60.2229 2.06714 60.1714 1.99 60.2486 1.96429H60.2357M60.2614 2.47857C60.2871 2.63286 60.3386 2.81286 60.4286 2.94143C60.4286 3.00571 60.0429 3.35286 59.6186 3.72571C59.5029 3.18571 59.4 2.82571 59.3614 2.67143C59.5414 2.54286 60.0043 2.41429 60.2614 2.49143V2.47857M58.2943 0.614286C58.3714 0.588571 58.5257 0.64 58.5771 0.678571C58.6157 0.704286 58.5771 0.832857 58.5771 0.884286C58.5771 0.922857 58.3843 1.01286 58.3843 1.01286Cnan nan 58.2043 0.884286 58.2043 0.832857H58.1914C58.2205 0.757666 58.2549 0.684627 58.2943 0.614286V0.614286M58.5386 4.58714C58.2439 4.04908 58.11 3.43769 58.1529 2.82571C58.3843 2.82571 58.7314 2.96714 59.1814 2.76143C59.1814 2.76143 59.31 3.18571 59.4386 3.88C59.1171 4.15 58.77 4.42 58.5386 4.58714V4.58714M55.4657 13.0729C54.7329 12.7129 55.1957 13.0214 55.4014 12.8671C56.5586 13.3943 57.15 13.2786 58.0243 13.1629C58.1529 13.33 58.32 13.4843 58.32 13.69C57.2529 13.9857 56.43 13.6 55.4657 13.0857V13.0729M59.6571 18.8071C59.58 18.2414 59.5543 17.8429 59.2971 17.5729C59.0914 17.0071 58.4871 15.4514 58.0629 14.05C58.32 13.7929 58.5257 13.9214 58.7057 14.6286C58.86 15.1943 59.0529 15.6571 59.2071 16.12C59.4 16.5957 59.5543 17.2257 59.6957 17.56C59.6957 17.56 59.8243 17.5857 59.9143 17.7657C60.2871 18.7943 60.3771 18.9743 60.3129 19.4629C60.4029 19.8486 60.9557 19.54 60.9043 20.0157H59.7471H60.2614C59.9014 19.6429 60.1457 19.09 59.6571 18.8071V18.8071M36.9771 19.7329C36.6557 19.9771 36.27 20.1186 35.8586 20.1829C35.82 20.17 35.7814 20.08 35.7814 20.0286L35.7043 18.5757L35.7429 18.5371C35.7814 18.5371 35.8714 18.4857 35.9229 18.4729H35.9871L36.9386 19.5657C36.9771 19.6171 37.0029 19.6943 36.9771 19.7329V19.7329M35.5114 20.1957C35.1257 20.1957 34.7657 20.0671 34.4443 19.9C34.4186 19.8614 34.4443 19.7714 34.4571 19.72L35.2543 18.5114H35.3186L35.4729 18.55L35.5243 18.5886L35.5886 20.0414C35.5886 20.0929 35.55 20.1829 35.5114 20.1957V20.1957M33.5057 17.1743C33.4543 17.1743 33.3771 17.0971 33.3771 17.0457C33.4543 16.8529 33.5443 16.66 33.6729 16.4929L34.2643 16.3386L34.9071 17.1357H34.8814C34.4891 17.1874 34.0942 17.2174 33.6986 17.2257L33.5057 17.1743V17.1743M35.3057 15.5157C35.3571 15.5414 35.3957 15.6186 35.3957 15.67V15.7857C35.01 15.8629 34.6243 15.94 34.2771 16.0429C34.2514 15.9914 34.2386 15.9271 34.2514 15.9143C34.56 15.6957 34.92 15.5671 35.3057 15.5286V15.5157M35.1129 17.11L34.47 16.2871C34.7786 16.21 35.1 16.1329 35.4086 16.0814L35.46 17.0329L35.1129 17.11V17.11M35.0486 17.3671V17.38C35.0153 17.425 34.9853 17.4723 34.9586 17.5214L34.9071 17.56L34.4314 17.4314L35.0486 17.3543V17.3671M35.91 17.1871H35.8586H35.9229H35.91M35.6529 16.9814L35.6014 16.0429C35.9871 15.9657 36.3729 15.9143 36.7586 15.8629C36.7475 15.8999 36.7301 15.9347 36.7071 15.9657L36.1286 16.8657L35.64 16.9943L35.6529 16.9814M36.8743 16.0814C36.9 16.03 36.9771 15.9786 37.0157 15.9914C37.1829 16.12 37.3371 16.2743 37.4657 16.4414C37.1186 16.57 36.7586 16.6729 36.4114 16.7757L36.8743 16.0686V16.0814M35.5886 15.7471V15.6571C35.5886 15.6057 35.6143 15.5157 35.6657 15.5029C35.91 15.5029 36.1414 15.5543 36.36 15.6314L35.5886 15.7471V15.7471M35.55 15.49H35.6143H35.55V15.49M32.1814 17.0971C32.0529 17.0586 32.0914 17.02 32.1686 16.9943C32.4257 16.8914 32.6957 16.7886 33.0043 16.6986C32.9271 16.8529 32.8757 17.0329 32.8243 17.2129C32.6069 17.1938 32.3918 17.1551 32.1814 17.0971V17.0971M33.2743 17.47H33.8529L34.8557 17.74L34.8686 17.7914C34.8686 17.83 34.8686 17.9329 34.8943 17.9843L34.8686 18.0229L33.5314 18.6014C33.48 18.6271 33.39 18.6271 33.3643 18.6014C33.2815 18.3614 33.2381 18.1096 33.2357 17.8557C33.2357 17.7271 33.2357 17.5986 33.2614 17.47H33.2743M33.4157 18.7686V18.7686ZM33.4929 18.8971C33.4929 18.8586 33.5571 18.7943 33.6086 18.7686L34.9457 18.2157L34.9971 18.2414L35.0871 18.3443C35.0871 18.3571 35.1129 18.3957 35.1 18.4086L34.3029 19.63C34.2771 19.6686 34.1871 19.72 34.1486 19.7071C33.8731 19.4939 33.649 19.2214 33.4929 18.91V18.8971M34.29 19.7971H34.2514H34.29V19.7971M35.5757 20.2086V20.2086ZM37.2471 19.5143C37.2214 19.54 37.1186 19.4886 37.08 19.45L36.1414 18.3443V18.2929C36.1659 18.2516 36.1874 18.2086 36.2057 18.1643C36.2186 18.1643 36.2443 18.1257 36.27 18.1386L37.6714 18.5243C37.71 18.5243 37.7871 18.5757 37.8 18.6271C37.6714 18.9614 37.5043 19.27 37.26 19.5143H37.2471M37.89 18.3057C37.8771 18.3443 37.7614 18.3571 37.71 18.3443L36.3214 17.9586L36.2957 17.9071C36.2953 17.8512 36.291 17.7953 36.2829 17.74C36.2829 17.7271 36.2829 17.6886 36.3086 17.6757L37.6586 17.1614C37.71 17.1486 37.8 17.1614 37.8386 17.1871C37.9445 17.5506 37.9621 17.9341 37.89 18.3057V18.3057M37.71 16.8529C37.71 16.9043 37.6457 16.9814 37.5943 16.9814L37.6843 16.9557L36.2443 17.5086L36.1929 17.4829C36.1611 17.438 36.1268 17.3951 36.09 17.3543L36.0643 17.29L36.1929 17.0971C36.63 16.9814 37.1057 16.84 37.6071 16.66L37.71 16.8529V16.8529M41.4771 14.7957C40.86 15.2329 41.1557 15.7729 40.7571 15.8757C40.6286 15.8629 39.8314 16.0043 39.7029 16.0557C39.4457 15.8114 39.1757 15.6057 38.7643 15.49C39.5357 15.1814 40.77 14.8471 41.4771 14.7829V14.7957M38.9314 15.9143C38.8029 15.9786 38.43 16.12 37.9543 16.2871C37.8331 16.1039 37.6907 15.9356 37.53 15.7857C38.1343 15.76 38.6357 15.7857 38.9314 15.9143V15.9143M45.7071 7.96857C44.7557 8.92 44.8714 10.3471 44.9871 11.4657C44.7686 11.6329 44.4986 11.7614 44.3186 11.8514C44.2157 10.4886 44.37 8.43143 45.7071 7.96857V7.96857M21.96 8.45714C21.7929 8.23857 21.5614 7.91714 21.7414 7.68571C21.87 7.51857 22.1529 7.64714 22.3071 7.72429C22.4357 7.80143 23.5029 8.36714 23.7986 8.44429C25.9457 8.98429 28.6586 8.18714 30.3557 9.73C30.4457 9.82 30.4971 9.88429 30.4843 9.98714C27.99 8.29 24.2229 10.81 21.96 8.44429V8.45714M23.9786 11.1957C24.1586 11.3114 24.2357 11.5814 24.4157 11.7486C24.7371 12.2757 25.3414 12.4557 25.6629 12.9186C25.555 12.9261 25.4467 12.9175 25.3414 12.8929C25.1357 12.8543 25.0457 12.79 24.8786 12.7129C24.7757 12.5714 24.5443 12.52 24.3643 12.61C24.2229 12.6357 23.8243 12.61 23.5543 12.5457C23.6057 12.1214 24.0171 11.71 23.9786 11.1957V11.1957M21.4714 15.7857L22.1271 16.5186C21.6514 16.5186 21.2014 16.4929 20.7643 16.4671C20.7386 16.4157 20.7129 16.3771 20.7257 16.3386C20.8029 16.1714 20.9057 16.0043 21.0214 15.8629L21.4714 15.7986V15.7857M25.3543 15.9657L25.56 16.3386C25.2386 16.39 24.8914 16.4157 24.5314 16.4543L25.0457 16.0171C25.1743 15.9143 25.3157 15.9271 25.3543 15.9657V15.9657M24.9043 15.8629L24.1714 16.48L23.6186 16.5057L23.9143 15.6571C24.2743 15.67 24.6343 15.6957 24.9686 15.7343C24.9557 15.7729 24.9429 15.8243 24.9043 15.8629V15.8629M24.7243 19.6429C24.4671 19.8357 24.1714 19.9771 23.8629 20.0543C23.7986 20.0543 23.6957 19.9643 23.67 19.8357L23.3871 18.2929L23.4 18.2543C23.4544 18.2351 23.5063 18.2092 23.5543 18.1771H23.6057L24.66 19.3343C24.7629 19.4629 24.7629 19.5914 24.7243 19.6429V19.6429M22.5 16.9429C22.5129 16.9429 22.5257 16.9686 22.5 16.9943L22.4357 17.0843C22.4357 17.11 22.41 17.11 22.3843 17.0971L21.2271 16.6857L22.3071 16.7114L22.5 16.93V16.9429M23.6571 16.8786C23.6224 16.844 23.5835 16.8138 23.5414 16.7886C23.5286 16.7886 23.5157 16.7629 23.5286 16.7371L23.5543 16.6857L23.9529 16.66L23.7086 16.8657C23.7086 16.8786 23.6829 16.8914 23.6571 16.8657V16.8786M23.3871 16.5057H23.0786L22.9114 15.6571L23.0657 15.6443H23.6957L23.3871 16.5057V16.5057M22.7057 15.67L22.86 16.5186H22.41L21.7157 15.7471L22.7057 15.67V15.67M22.8729 16.6986V16.7243C22.8188 16.7444 22.7671 16.7703 22.7186 16.8014H22.6671L22.59 16.7114H22.8857L22.8729 16.6986M20.6614 16.4414L20.6871 16.4157C20.6799 16.4294 20.6713 16.4423 20.6614 16.4543V16.4414M20.5457 16.84C20.5714 16.7886 20.7129 16.7371 20.8414 16.7757L22.32 17.29L22.3457 17.3414C22.3367 17.3924 22.3324 17.444 22.3329 17.4957L22.2943 17.5343L20.7514 17.8171C20.61 17.8429 20.4943 17.7657 20.4814 17.7143L20.4557 17.4829C20.4584 17.2656 20.4887 17.0496 20.5457 16.84V16.84M20.5714 18.2286C20.5714 18.1643 20.6614 18.0486 20.8029 18.0229L22.3329 17.74C22.35 17.739 22.3657 17.7495 22.3714 17.7657L22.4229 17.8814V17.9329L21.1886 18.91C21.06 19 20.9314 18.9871 20.8929 18.9486C20.7523 18.7249 20.6441 18.4825 20.5714 18.2286V18.2286M20.9443 19.0129L20.9057 18.9614L20.9443 19.0129V19.0129M21.2271 19.36C21.2014 19.3214 21.2271 19.1543 21.33 19.0643L22.5386 18.1C22.5514 18.0743 22.5771 18.0743 22.59 18.1L22.7186 18.19C22.7443 18.19 22.7571 18.2157 22.7443 18.2414L22.23 19.7071C22.1657 19.8614 22.05 19.9129 21.9857 19.9C21.7039 19.7646 21.4473 19.582 21.2271 19.36V19.36M22.1271 19.9643C22.1097 19.9615 22.0925 19.9572 22.0757 19.9514L22.1143 19.9643H22.1271M22.4871 20.0929C22.4357 20.0543 22.3586 19.9257 22.41 19.7843L22.9371 18.3186C22.9371 18.2929 22.9629 18.28 22.9886 18.2929H23.13C23.1557 18.2929 23.1686 18.3186 23.1686 18.3443L23.4514 19.8743C23.4771 20.0286 23.4129 20.1186 23.3614 20.1443L23.1429 20.17C22.9114 20.17 22.6929 20.1314 22.4871 20.08V20.0929M25.02 19.3986C25.0299 19.3867 25.0385 19.3737 25.0457 19.36L25.02 19.3986V19.3986M25.11 19.2957C25.0586 19.3214 24.9171 19.3086 24.8143 19.2057L23.7857 18.0486C23.76 18.0357 23.76 18.01 23.7729 17.9971C23.7985 17.9657 23.8201 17.9311 23.8371 17.8943C23.8371 17.8686 23.8757 17.8686 23.8886 17.8814L25.38 18.4086C25.5343 18.4729 25.5729 18.5886 25.56 18.64C25.445 18.8736 25.2979 19.09 25.1229 19.2829L25.11 19.2957M25.56 18.6143L25.6371 18.46C25.6132 18.5123 25.5875 18.5637 25.56 18.6143V18.6143M25.7271 18.1386C25.7143 18.19 25.5729 18.2671 25.4443 18.2157L23.9529 17.6757L23.9271 17.6371L23.94 17.5086L23.9786 17.47L25.5471 17.2257C25.7014 17.2129 25.8043 17.2771 25.8043 17.3286L25.8171 17.4829C25.8171 17.7143 25.7914 17.92 25.74 18.1257L25.7271 18.1386M25.7271 16.8271C25.7271 16.8786 25.6371 16.9943 25.5086 17.02L23.9529 17.2643C23.9427 17.2683 23.9312 17.2678 23.9214 17.2629C23.9116 17.258 23.9043 17.2492 23.9014 17.2386C23.8853 17.1851 23.8638 17.1334 23.8371 17.0843V17.0329L24.3 16.6471C24.75 16.6086 25.1871 16.5571 25.6243 16.4929L25.7271 16.8271V16.8271M26.5243 16.0171C26.6271 16.0429 26.6529 16.12 26.5243 16.1457L26.0871 16.2486L25.8814 15.8629C26.1129 15.9014 26.3443 15.9529 26.5243 16.0171V16.0171M23.9914 15.4514L24.0557 15.2586C24.1071 15.1171 24.2357 15.0657 24.2871 15.0786C24.5443 15.1943 24.7629 15.3486 24.9686 15.5414C24.6398 15.4989 24.3096 15.4689 23.9786 15.4514H23.9914M23.7857 14.8986C23.8243 14.9243 23.8886 15.0657 23.85 15.1943L23.76 15.4514C23.5286 15.4257 23.2971 15.4129 23.0529 15.4257H22.8729L22.8086 15.1043C22.7829 14.95 22.86 14.8471 22.9114 14.8343L23.1429 14.8086C23.3614 14.8086 23.58 14.8471 23.7857 14.8986V14.8986M22.41 14.9243C22.4614 14.9243 22.5771 15.0143 22.6029 15.1429L22.6414 15.3614C22.5103 15.239 22.3899 15.1057 22.2814 14.9629L22.41 14.9243V14.9243M22.32 15.4771L21.5743 15.5671C21.5229 15.4643 21.5229 15.3743 21.5486 15.3357L21.9343 15.1043C22.0629 15.2329 22.1786 15.3614 22.32 15.4771V15.4771M21.2529 15.5929V15.5929ZM19.62 16.1971L20.3271 15.9914C20.258 16.1244 20.1979 16.2618 20.1471 16.4029L19.62 16.3386C19.4914 16.3129 19.5171 16.2357 19.62 16.21V16.1971M66.8057 8.58571C66.7543 8.62429 66.7286 8.68857 66.78 8.70143C66.8571 8.71429 66.9086 8.74 66.9986 8.83C67.05 8.85571 67.0371 8.77857 67.0243 8.72714C66.9729 8.59857 66.87 8.53429 66.8057 8.58571V8.58571" fill="var(--fill-0, black)"/>
<path id="Vector_3" d="M64.8771 20.0157H62.3443C62.3186 20.1829 62.5114 20.3114 62.6271 20.44H65.3914L66.1629 20.0671C66.2914 19.7329 66.0343 19.4371 66.0343 19.1671C66.0857 18.3571 65.6357 17.56 65.3914 16.8271C65.5457 16.66 65.7386 16.2871 65.9957 16.39C66.5871 17.3029 66.7029 18.4857 66.6 19.6557C66.5357 19.9386 66.0471 20.2086 66.06 20.4786C66.06 20.5686 66.7157 20.53 66.9857 20.2986C67.0243 20.1186 67.3714 19.8871 67.5 19.8614C67.6157 19.5014 67.4229 19.5143 67.4486 19.2957C67.49 18.6585 67.4467 18.0187 67.32 17.3929L67.2686 17.3671C67.14 17.0457 67.4357 16.57 67.5643 16.2614L68.4386 16.1843C68.3357 15.4129 68.0529 14.59 67.8857 13.78C67.9886 13.6 68.1814 13.4457 68.3614 13.3429C69.2871 12.7257 68.4771 11.7357 68.4386 10.9771C68.2843 10.5786 67.7314 10.27 67.6929 9.83286C67.7957 9.92286 67.8857 9.88429 67.9114 9.89714C68.1686 9.70429 68.1686 9.44714 68.04 9.12571C68.4257 8.63714 68.6829 8.41857 68.76 8.26429C68.7343 7.85286 68.0786 7.26143 67.7057 7.26143C67.4871 7.39 67.3329 7.63429 66.9214 7.94286C66.9086 7.96857 66.4329 7.77571 66.2786 7.94286C66.15 8.04571 66.1886 8.41857 66.4457 8.62429C66.42 8.72714 66.3943 8.75286 66.33 8.88143C66.3043 8.94571 66.2914 9.01 66.33 9.03571C66.42 9.11286 66.4457 9.24143 66.3814 9.42143C66.3171 9.61429 66.5357 9.75571 66.6129 9.79429L66.6771 9.85857C66.7029 10.0643 65.97 10.4629 65.97 10.63C65.9186 11.1314 65.5971 11.08 65.3014 12.7386C65.34 13.1371 65.3271 13.4971 65.3014 13.8186C64.9157 14.8086 64.62 15.3743 64.3629 16.0943C64.1571 16.6857 65.34 18.4086 65.3529 19.5657C65.0957 19.9514 64.89 19.9 64.8771 20.0157V20.0157M66.8057 18.2414C66.7299 18.0676 66.6989 17.8775 66.7157 17.6886C66.8186 17.5857 67.0114 17.6629 67.1014 17.65C67.23 18.2029 67.2557 18.28 66.7929 18.2414H66.8057M66.8057 10.0643C66.8443 10.0386 66.87 9.96143 66.8957 9.93571C67.2814 9.67857 67.0114 9.85857 66.6257 9.65286C66.4971 9.58857 66.4971 9.47286 66.51 9.29286C66.5357 9.08714 66.4457 9.03571 66.4071 8.97143L66.51 8.76571C66.6 8.63714 66.6771 8.35429 66.7286 8.27714C67.3714 8.30286 67.23 8.58571 67.2429 8.63714C67.2943 8.77857 67.5643 9.07429 67.6929 9.17714C67.6543 9.56286 67.3457 9.33143 67.4871 9.69143C67.4486 10.3729 66.6514 10.2829 66.3043 10.8486C66.2657 10.2829 66.7543 10.2829 66.8057 10.0643V10.0643M66.0729 12.97C66.2529 13.1371 66.4329 13.33 66.5614 13.3557C66.6643 13.6 66.3686 13.6257 66.2657 13.7414C66.0343 13.78 65.9443 13.5229 65.8029 13.6386C65.7643 13.6643 65.6229 13.6386 65.6229 13.6C65.7 13.3943 65.9186 13.0986 66.0729 12.97V12.97M64.5429 16.4157C64.4529 15.9529 65.0829 15.22 65.4943 13.7929C65.6614 13.7414 65.7514 14.1271 66.0086 13.9729C66.3686 13.9857 66.2143 14.9629 66.5614 14.3457C66.5614 14.0629 66.5357 13.7671 66.7543 13.6129C66.9857 13.5614 67.14 13.69 67.1529 13.8957L66.7929 14.4614C67.4743 14.4871 66.5743 15.58 67.4743 15.3871C67.4486 15.7986 67.23 16.9429 67.0757 16.8914C66.9471 16.2486 66.8443 16.5057 66.8443 16.6986C66.87 16.9557 66.87 17.1486 67.0114 17.3414C66.9729 17.4057 66.78 17.4057 66.7286 17.4057C66.2143 16.6857 66.24 15.6829 65.9186 14.8986C65.8543 14.8986 65.79 14.9629 65.79 15.0271C65.7514 15.5029 65.5714 16.1843 65.1857 16.4157C64.9286 16.5443 65.7129 16.4671 65.07 16.7629C65.3271 16.93 65.0957 17.1486 64.8257 17.1486C64.6971 16.8657 64.5943 16.6343 64.5557 16.4157H64.5429M65.2243 17.9971C65.107 17.8235 65.0079 17.6382 64.9286 17.4443L65.3143 17.29C65.4171 17.4186 65.5329 17.65 65.5457 17.8686C65.4686 17.9071 65.3529 17.9971 65.2243 17.9971V17.9971M53.2157 10.3343C53.1643 9.57571 53.4729 8.93286 53.1257 8.12286C53.1257 7.78857 53.3571 7.53143 53.3057 7.22286L52.7271 7.35143C52.6371 7.99429 52.5343 8.21286 52.6243 8.80429C52.7657 9.49857 52.8429 10.1286 53.2157 10.3471V10.3343M47.2886 12.4557C49.4743 11.8386 51.0043 11.3114 52.8171 10.54C52.0586 8.92 52.2257 8.45714 52.3029 7.41571C52.3029 7.41571 51.3643 7.42857 50.2971 7.15857C49.0114 7.96857 47.5329 10.9129 47.2886 12.4557V12.4557M54.8229 12.9186C54.7071 12.8029 54.8871 12.9957 54.8229 12.9186V12.9186M57.4714 8.00714C56.5457 7.36429 55.8257 5.88571 54.8229 5.98857C54.72 4.89571 54.2443 3.04429 55.7486 1.09C55.9543 1 56.2629 0.961429 56.3914 0.82C55.7743 0.755714 54.9643 1.14143 54.3729 0.807143C54.3729 0.807143 54.6429 1.28286 54.9643 1.34714C54.7586 1.63 54.3471 1.83571 54.5914 2.32429C54.09 2.63286 54.2829 3.07 54.4371 3.31429C54.18 3.57143 54.0257 4.04714 54.36 4.33C53.9486 4.76714 54.4629 5.14 54.5786 5.29429C54.3729 5.73143 54.5786 6.06571 54.5786 6.06571C54.5786 6.38714 54 6.83714 53.8071 6.99143C53.55 7.73714 53.6529 9.24143 53.6786 10.2314C55.0671 9.57571 56.4171 8.94571 57.4714 8.00714V8.00714M41.6571 34.3643C41.6571 33.5929 41.1429 32.6671 40.41 32.23C40.2348 32.1216 40.0367 32.0555 39.8314 32.0371C40.0114 32.05 40.2429 32.0371 40.4743 31.9471C40.4786 31.9468 40.4829 31.9468 40.4871 31.9471C41.22 31.6129 42.1071 30.6743 42.1071 29.08C42.1071 27.9229 41.5929 26.9586 40.7443 26.3414C39.9431 25.823 38.9968 25.5752 38.0443 25.6343H30.5486V27.5371H32.2329V37.1157H30.5614V39.0186H35.8714V37.1157H34.2V32.8986H37.8771C39.15 32.8986 39.6386 33.7471 39.6643 34.4543L39.7543 39.0057H43.4186V37.1157H41.7086L41.6571 34.3771V34.3643M38.2757 31.06H34.2V27.5371H38.0571C38.4557 27.5371 38.9571 27.5243 39.3429 27.7171C39.8057 27.9614 40.2557 28.4757 40.2557 29.3243C40.2557 30.3014 39.3557 31.06 38.2757 31.06V31.06M29.8929 43.7243H27.3471V51.3614H28.4786V48.0571H29.7386C31.5643 48.0571 32.3871 47.1186 32.3871 45.91Cnan nan 31.6157 43.7243 29.8929 43.7243V43.7243M29.8414 47.0671H28.4914V44.7014H29.8929C30.9214 44.7014 31.23 45.3057 31.23 45.8586C31.23 46.63 30.69 47.0671 29.8414 47.0671V47.0671M36.7843 43.6729L33.4029 51.3614H34.6243L35.55 49.1114H38.8929L39.8571 51.3614H41.1043L37.5814 43.6729H36.7843V43.6729M36 48.1214L37.17 45.1L38.4429 48.1214H36V48.1214M52.7014 43.7243H53.8329V51.3614H52.7014V43.7243M58.5386 45.5114C58.5386 44.9714 59.0786 44.6114 59.85 44.6114C60.4157 44.6114 61.0971 44.7786 61.8043 45.3957V44.1486C61.2472 43.8062 60.6067 43.6239 59.9529 43.6214C58.4229 43.6214 57.42 44.4057 57.42 45.6529C57.42 47.7486 61.02 47.9286 61.02 49.51C61.02 49.9343 60.5957 50.4743 59.67 50.4743C58.8471 50.4743 58.0886 50.0886 57.4714 49.3686V50.7571C58.1657 51.2329 58.8857 51.4643 59.7986 51.4643C61.1486 51.4643 62.1386 50.59 62.1386 49.3943C62.1386 46.9514 58.5386 46.9771 58.5386 45.5114V45.5114M48.7029 49.8443C48.0857 48.8929 47.6357 48.1857 46.9029 47.7357C47.7196 47.479 48.2694 46.7146 48.2529 45.8586C48.2529 44.5343 47.2371 43.7243 45.6171 43.7243H43.5857V51.3614H44.7429V48.0443H45.2314C45.81 48.0443 46.2986 48.2243 47.3529 49.7929L48.3686 51.3614H49.7186L49.1271 50.4743C48.9794 50.2686 48.8379 50.0585 48.7029 49.8443V49.8443M45.4886 47.0543H44.7429V44.6629H45.4886C46.6071 44.6629 47.0571 45.1 47.07 45.82C47.07 46.4629 46.7229 47.0543 45.4886 47.0543V47.0543" fill="var(--fill-0, black)"/>
</g>
<defs>
<clipPath id="clip0_0_4">
<rect width="90" height="51.5" fill="white"/>
</clipPath>
</defs>
</svg>
