<svg preserveAspectRatio="none" width="100%" height="100%" overflow="visible" style="display: block;" viewBox="0 0 40 30" fill="none" xmlns="http://www.w3.org/2000/svg">
<g id="Container">
<path id="Symbol" d="M25.2533 5.99665H19.2467V10.4967H25.2533V5.99665V5.99665M28.2467 12.0033V1.48661C28.2467 1.21205 28.1797 0.962612 28.0458 0.738281C27.9118 0.513951 27.7294 0.334821 27.4983 0.200893C27.2673 0.0669643 27.0179 0 26.75 0H13.25C12.9821 0 12.7327 0.0669643 12.5017 0.200893C12.2706 0.334821 12.0882 0.513951 11.9542 0.738281C11.8203 0.962612 11.7533 1.21205 11.7533 1.48661V12.0033C11.7533 12.2712 11.8203 12.5206 11.9542 12.7517C12.0882 12.9827 12.2706 13.1652 12.5017 13.2991C12.7327 13.433 12.9821 13.5 13.25 13.5H26.75C27.0179 13.5 27.2673 13.433 27.4983 13.2991C27.7294 13.1652 27.9118 12.9827 28.0458 12.7517C28.1797 12.5206 28.2467 12.2712 28.2467 12.0033V12.0033M26.75 12.0134H13.25V1.47656H26.75V12.0134V12.0134" fill="var(--fill-0, black)"/>
</g>
</svg>
