<svg preserveAspectRatio="none" width="100%" height="100%" overflow="visible" style="display: block;" viewBox="0 0 44 20" fill="none" xmlns="http://www.w3.org/2000/svg">
<g id="SVG">
<path id="Vector" d="M36.4346 5.68359L38.8496 13.5703H38.8926L41.3076 5.68359H43.3936L39.791 15.8916C38.9688 18.2293 38.0277 19 36.0273 19C35.8747 19 35.3657 18.9825 35.2471 18.9482V17.3477C35.3742 17.3648 35.6886 17.3818 35.8496 17.3818C36.7564 17.3818 37.2645 16.9959 37.5781 15.9941L37.7646 15.4033L34.29 5.68359H36.4346V5.68359M8.66602 4.50195C9.12373 4.53621 10.4463 4.67404 11.2939 5.94141C11.2249 5.99349 9.72534 6.86664 9.74219 8.69824C9.75914 10.8904 11.6413 11.6186 11.6582 11.6357C11.6408 11.6888 11.3608 12.6731 10.6748 13.6826C10.0732 14.5729 9.45453 15.4465 8.47168 15.4639C7.52246 15.481 7.20835 14.8898 6.11523 14.8896C5.03028 14.8896 4.67387 15.4462 3.77539 15.4805C2.8262 15.5147 2.10566 14.5389 1.50391 13.6484C0.274856 11.8502 -0.665962 8.57846 0.605469 6.36914C1.22424 5.26455 2.35143 4.57085 3.56348 4.55371C4.49586 4.53658 5.35202 5.17871 5.91992 5.17871C6.47933 5.17869 7.48793 4.43354 8.66602 4.50195V4.50195M29.6191 5.55566C31.9668 5.55571 33.4929 6.79719 33.4932 8.72363V15.3691H31.5947V13.7676H31.5518C31.0094 14.8122 29.8146 15.4715 28.5264 15.4717C26.6192 15.4717 25.2881 14.3245 25.2881 12.5947C25.2881 10.8821 26.5764 9.89759 28.958 9.75195L31.5186 9.59766V8.86133C31.5186 7.77397 30.8147 7.1828 29.5605 7.18262C28.5266 7.18262 27.7719 7.72206 27.6191 8.54395H25.7715C25.831 6.81441 27.441 5.55577 29.6191 5.55566V5.55566M20.4316 2.01855C22.9911 2.01878 24.7791 3.80046 24.7793 6.40332C24.7791 9.00633 22.9568 10.8047 20.3633 10.8047H17.5234V15.3691H15.4727V2.01855H20.4316V2.01855M29.2383 11.1387C27.9585 11.2157 27.2882 11.7039 27.2881 12.543C27.2881 13.3565 27.9837 13.8877 29.0771 13.8877C30.467 13.8876 31.5184 12.9971 31.5186 11.7471V10.9932L29.2383 11.1387V11.1387M17.5244 9.06641H19.8799C21.6683 9.06638 22.6855 8.09807 22.6855 6.41113C22.6852 4.72471 21.6683 3.76565 19.8887 3.76562H17.5244V9.06641V9.06641M8.6748 1C8.75955 1.85621 8.42869 2.69522 7.92871 3.32031C7.42021 3.92822 6.60657 4.40819 5.79297 4.33984C5.69125 3.51777 6.08947 2.64398 6.55566 2.10449C7.06426 1.47947 7.9544 1.03425 8.6748 1V1" fill="var(--fill-0, black)"/>
</g>
</svg>
