<svg preserveAspectRatio="none" width="100%" height="100%" overflow="visible" style="display: block;" viewBox="0 0 20 20" fill="none" xmlns="http://www.w3.org/2000/svg">
<g id="SVG">
<path id="Vector" fill-rule="evenodd" clip-rule="evenodd" d="M7.84376 3.87339C8.41905 3.27414 9.19512 2.94123 10.0001 2.94123C10.805 2.94123 11.5811 3.27414 12.1564 3.87339C12.6461 4.38349 12.9556 5.05097 13.0373 5.76584H6.9628C7.04452 5.05097 7.35407 4.38349 7.84376 3.87339V3.87339M5.99986 6.70707V8.35327C5.99986 8.61319 6.21057 8.82389 6.47048 8.82389C6.73039 8.82389 6.94109 8.61319 6.94109 8.35327V6.70707H13.0591V8.35327C13.0591 8.61319 13.2698 8.82389 13.5297 8.82389C13.7896 8.82389 14.0003 8.61319 14.0003 8.35327V6.70707H15.9291L16.8994 16.0218C16.9572 16.5772 16.5216 17.0606 15.9632 17.0606H4.0367C3.4783 17.0606 3.04269 16.5772 3.10054 16.0218L4.07083 6.70707H5.99986V6.70707M6.01681 5.76584C6.10184 4.8111 6.50424 3.90962 7.16477 3.22156C7.91334 2.44181 8.93281 2 10.0001 2C11.0673 2 12.0868 2.44181 12.8354 3.22156C13.4959 3.90962 13.8983 4.8111 13.9833 5.76584H16.3532C16.5943 5.76584 16.7963 5.94796 16.8213 6.1877L17.8355 15.9243C17.9513 17.0351 17.08 18.0018 15.9632 18.0018H4.0367C2.9199 18.0018 2.04867 17.0351 2.16438 15.9243L3.17861 6.1877C3.20358 5.94796 3.40565 5.76584 3.64669 5.76584H6.01681V5.76584" fill="var(--fill-0, black)"/>
</g>
</svg>
