<svg preserveAspectRatio="none" width="100%" height="100%" overflow="visible" style="display: block;" viewBox="0 0 84 48" fill="none" xmlns="http://www.w3.org/2000/svg">
<g id="SVG" clip-path="url(#clip0_0_4)">
<path id="Vector" d="M8.088 25.668H9.684V28.704H4.044V25.668H5.616V23.892H0.6V25.668H2.196V34.596H0.6V36.36H5.616V34.596H4.032V30.456H9.672V34.596H8.088V36.36H13.128V34.596H11.52V25.668H13.116V23.892H8.088V25.668M68.604 34.596H63.66V30.432H67.908V28.68H63.648V25.668H68.64V27.372H70.392V23.892H60.144V25.668H61.812V34.596H60.132V36.36H70.416V32.208H68.604V34.596M25.74 32.208H23.928V34.596H18.984V30.432H23.232V28.68H18.984V25.668H23.964V27.372H25.716V23.892H15.48V25.668H17.16V34.596H15.48V36.36H25.752L25.74 32.208M64.152 23.28H67.74L66.816 22.176H63.12L64.152 23.28M80.4 29.232C79.152 28.872 78.264 28.956 76.992 28.536C75.84 28.14 75.612 27.432 75.612 26.976C75.612 26.496 76.116 25.272 77.928 25.272C79.74 25.272 80.928 26.472 81 27.528H82.74V23.88H81.06V24.672L81.108 24.912C81.0513 24.792 80.9695 24.6856 80.868 24.6C80.34 24.12 79.32 23.592 77.796 23.592C75.936 23.592 73.752 24.744 73.752 26.952C73.752 29.124 75.312 29.88 76.644 30.24C77.964 30.588 78.648 30.588 79.764 30.888C80.868 31.188 81.588 31.848 81.588 32.844C81.588 33.78 81.012 35.004 78.66 35.004C76.32 35.004 75.396 33.744 75.12 31.932H73.452V36.36H75.18V35.52L75.108 35.304C74.964 35.508 75.168 35.448 75.372 35.592L75.384 35.616C76.26 36.288 77.412 36.732 78.888 36.732C80.532 36.732 83.412 35.892 83.412 32.892C83.412 30.756 82.272 29.748 80.412 29.22L80.4 29.232M52.716 34.596V36.36H57.804V34.596H56.136V25.668H57.804V23.892H53.256L50.244 31.176L50.184 31.536L50.124 31.176L47.112 23.892H42.564V25.668H44.232V34.596H42.564V36.36H47.652V34.596H46.056V26.388L46.068 25.848L46.212 26.28L49.692 34.572H50.676L54.156 26.268L54.276 25.836L54.3 26.328V34.596H52.716M17.964 18.636V19.044H19.68C19.5094 18.9162 19.3452 18.78 19.188 18.636H17.964V18.636M64.176 18.648H63.288C63.048 18.696 62.856 18.912 62.832 19.044H64.176V18.648V18.648M17.964 20.244H64.164V19.38H34.464C33.708 19.74 32.736 19.716 31.992 19.38H22.968C22.116 19.74 21.132 19.74 20.28 19.38H17.976V20.232L17.964 20.244M30.972 18.636H24C23.976 18.684 23.652 18.96 23.52 19.044H31.416C31.2523 18.9262 31.1032 18.7892 30.972 18.636V18.636" fill="black" fill-rule="evenodd" clip-rule="evenodd"/>
<path id="Vector_2" d="M18.756 15.432C18.6679 15.7036 18.6195 15.9865 18.612 16.272C18.612 17.9211 19.9509 19.26 21.6 19.26C23.2491 19.26 24.588 17.9211 24.588 16.272C24.588 15.924 24.516 15.588 24.396 15.276C24.744 15.216 25.08 15.156 25.404 15.048C25.56 15.012 25.56 14.94 25.44 14.904C24.996 14.772 24.528 14.664 24.048 14.568C23.4897 13.7685 22.5751 13.2933 21.6 13.296C21.216 13.296 20.856 13.38 20.52 13.512V13.5C20.3762 13.2508 20.3584 12.9483 20.472 12.684C20.772 12.204 21.444 12 22.008 11.964C22.188 11.94 22.632 11.964 22.68 12.024C22.8 12.108 22.98 12.144 23.172 12.072C23.364 12.144 23.412 12.192 23.628 12.264C25.524 12.912 27.636 13.248 29.76 12.864C30.096 13.176 30.276 13.728 30.504 14.112C30.576 14.208 30.648 14.04 31.704 13.992H32.904C32.1119 14.0889 31.4061 14.5388 30.984 15.216C30.324 15.42 29.82 15.624 29.628 15.744C29.388 15.876 29.352 15.96 29.628 16.032C29.964 16.116 30.288 16.176 30.612 16.212C30.5849 16.3465 30.5689 16.4829 30.564 16.62C30.564 17.5653 31.0683 18.4388 31.887 18.9115C32.7057 19.3842 33.7143 19.3842 34.533 18.9115C35.3517 18.4388 35.856 17.5653 35.856 16.62C35.856 16.164 35.736 15.732 35.532 15.36C35.868 15.24 36.216 15.12 36.588 14.964C36.876 15.072 37.068 15.24 37.284 15.48C37.452 15.672 37.824 15.6 38.052 15.54C38.412 15.444 38.472 15.156 38.472 14.82C38.472 14.676 38.472 14.52 38.556 14.4C38.976 13.428 40.692 13.296 41.568 13.08C41.568 13.08 41.112 13.632 40.788 13.764C40.716 15.18 40.176 16.416 40.104 17.784C40.524 17.796 40.5 18.264 40.608 18.528C40.488 18.768 40.284 18.528 40.104 18.612C39.48 18.252 40.26 17.7 39.744 17.268C40.008 16.128 40.44 15.012 40.404 13.812C40.236 13.824 40.176 14.004 40.104 14.136C39.984 15.288 39.66 16.332 39.36 17.376C39.492 17.448 39.72 17.52 39.72 17.712C39.312 17.964 39.72 18.36 39.564 18.648H35.484L35.016 19.056H41.292L41.352 18.816C40.428 17.856 40.776 16.416 41.196 15.336L42.276 13.872C43.164 13.524 43.716 12.432 44.664 12.084C44.664 12.564 44.076 12.756 43.764 13.02C43.44 13.788 42.396 13.872 42.24 14.736C42.636 15.204 43.236 15.504 43.728 15.936C44.244 16.248 44.064 16.896 44.472 17.244C44.544 17.34 44.472 17.484 44.352 17.568C43.92 17.676 43.932 17.964 44.196 18.216C44.364 18.372 44.556 18.576 44.532 18.648H41.652C41.652 18.78 41.772 18.828 41.892 19.056H57.852C57.972 18.828 57.732 18.576 57.612 18.336C56.484 17.916 56.484 16.848 56.412 15.672C56.436 15.624 56.352 15.516 56.364 15.276C55.8052 14.19 55.6076 12.9541 55.8 11.748L56.04 11.268C56.28 10.932 56.028 10.752 56.196 10.404L59.556 9.756C59.616 9.72 59.604 9.588 59.544 9.516L58.512 9.72C57.4266 9.24642 56.4715 8.51778 55.728 7.596C55.968 5.928 55.848 4.584 55.68 3.684C56.172 3.276 56.58 2.88 56.58 2.88C56.916 3.084 56.988 3 57.036 2.88C56.988 2.82 56.484 2.604 56.556 2.388C56.88 2.472 56.952 2.376 57 2.196L56.772 2.112L56.808 1.992C56.868 1.872 57.168 1.992 57.288 1.956C57.492 1.836 57.264 1.644 57.324 1.476C56.856 1.104 56.016 1.08 55.5 0.72C55.344 0.42 55.284 0.3 55.116 0.18C54.783 0.0552425 54.4264 0.00605683 54.072 0.036C53.928 0.084 53.676 0.324 53.676 0.324C53.136 0.444 52.824 0.264 52.452 0.048C52.452 0.048 52.536 0.468 52.944 0.648C52.584 0.792 52.416 1.104 52.356 1.488C51.852 1.608 51.828 2.112 51.9 2.328C51.48 2.58 51.516 2.916 51.66 3.252C51.3 3.492 51.348 3.852 51.456 4.128C51.144 4.32 51.456 4.848 51.504 5.172C52.404 4.98 53.52 6.972 55.128 7.212C55.428 5.796 55.056 5.1 54.708 4.404C54.972 4.248 55.248 4.044 55.524 3.828C55.692 4.716 55.8 6.012 55.62 7.488L55.596 7.464C55.488 7.464 55.392 7.392 55.308 7.356C55.32 7.404 55.512 7.704 55.476 7.752C55.476 7.752 54.948 8.1 53.916 7.668C53.64 8.316 50.1 9.9 50.1 9.9C50.22 10.872 50.7 11.52 51.18 12.06C51.936 12.624 52.74 12.9 53.7 13.116C53.916 13.632 54.564 15.36 54.624 15.636C54.684 15.924 54.84 15.924 54.84 15.924C54.936 16.044 55.236 16.596 55.272 16.86L55.344 17.796C55.38 18.012 55.656 17.856 55.704 18.036L55.584 18.66H44.952C45.108 17.916 44.724 17.268 44.928 16.608C44.496 15.864 43.332 15.348 43.536 14.376C44.1 13.596 45.852 12.84 45.456 11.892C47.04 11.088 47.88 12.432 49.392 12.336C49.92 12.312 50.508 12.252 50.988 12.108C50.3713 11.5631 49.873 10.8973 49.524 10.152C46.4052 11.4586 43.1712 12.471 39.864 13.176L39.6 13.08C37.9013 13.4263 36.2196 13.8508 34.56 14.352C34.2969 14.1954 34.0086 14.0858 33.708 14.028H33.792C34.116 14.028 34.608 13.86 34.956 13.74C36.42 13.2 36.96 11.112 37.62 9.78C38.196 11.844 39.528 12.012 40.308 11.76L40.38 12.408C40.584 12.912 41.052 12.384 41.556 12.18C41.508 12.06 41.436 11.724 41.388 11.304L42.012 10.944C42.048 11.424 42.084 11.904 41.94 12.144L43.68 11.676C44.016 10.164 44.928 8.076 46.536 6.54C45.1492 5.91582 43.5304 6.1147 42.336 7.056C40.296 7.704 40.224 10.512 40.296 11.484C39.936 11.556 38.448 12.072 37.752 9.504C38.2405 8.40766 38.9328 7.41406 39.792 6.576C39.876 6.504 39.792 6.408 39.612 6.504C37.872 7.704 37.224 9.816 36.288 11.604C35.6184 12.7217 34.3701 13.3598 33.072 13.248C31.2 13.224 30.312 11.28 29.448 10.008C28.14 7.152 24.768 8.184 22.248 7.572C22.104 7.5 21.828 6.672 21.42 6.696C21.132 6.72 21.408 7.008 21.24 7.116C20.928 6.984 20.664 6.756 20.268 6.816C20.016 6.864 19.944 7.128 19.968 7.356C20.16 8.268 21.144 8.676 21.864 9C22.152 9.42 22.044 10.86 21.816 11.352C21.516 11.904 20.328 11.712 20.1 12.972C20.0609 13.2109 20.1031 13.456 20.22 13.668C19.7612 13.9088 19.3726 14.2644 19.092 14.7C18.588 14.82 18.096 14.952 17.652 15.12C17.532 15.156 17.532 15.24 17.676 15.264L18.756 15.444V15.432M56.016 8.352C56.448 8.832 57.48 9.54 58.14 9.78L56.22 10.128C56.448 9.312 55.716 9.012 56.016 8.352V8.352M56.22 1.8C56.292 1.764 56.496 1.848 56.58 1.86C56.628 1.872 56.616 1.98 56.58 2.076C56.46 2.112 56.268 2.04 56.244 1.968C56.208 1.896 56.16 1.824 56.232 1.8H56.22M56.244 2.28C56.268 2.424 56.316 2.592 56.4 2.712C56.4 2.772 56.04 3.096 55.644 3.444C55.536 2.94 55.44 2.604 55.404 2.46C55.572 2.34 56.004 2.22 56.244 2.292V2.28M54.408 0.54C54.48 0.516 54.624 0.564 54.672 0.6C54.708 0.624 54.672 0.744 54.672 0.792C54.672 0.828 54.492 0.912 54.492 0.912C54.492 0.912 54.324 0.792 54.324 0.744H54.312C54.3392 0.673822 54.3712 0.605652 54.408 0.54V0.54M54.636 4.248C54.361 3.74581 54.236 3.17517 54.276 2.604C54.492 2.604 54.816 2.736 55.236 2.544C55.236 2.544 55.356 2.94 55.476 3.588C55.176 3.84 54.852 4.092 54.636 4.248V4.248M51.768 12.168C51.084 11.832 51.516 12.12 51.708 11.976C52.788 12.468 53.34 12.36 54.156 12.252C54.276 12.408 54.432 12.552 54.432 12.744C53.436 13.02 52.668 12.66 51.768 12.18V12.168M55.68 17.52C55.608 16.992 55.584 16.62 55.344 16.368C55.152 15.84 54.588 14.388 54.192 13.08C54.432 12.84 54.624 12.96 54.792 13.62C54.936 14.148 55.116 14.58 55.26 15.012C55.44 15.456 55.584 16.044 55.716 16.356C55.716 16.356 55.836 16.38 55.92 16.548C56.268 17.508 56.352 17.676 56.292 18.132C56.376 18.492 56.892 18.204 56.844 18.648H55.764H56.244C55.908 18.3 56.136 17.784 55.68 17.52V17.52M34.512 18.384C34.212 18.612 33.852 18.744 33.468 18.804C33.432 18.792 33.396 18.708 33.396 18.66L33.324 17.304L33.36 17.268C33.396 17.268 33.48 17.22 33.528 17.208H33.588L34.476 18.228C34.512 18.276 34.536 18.348 34.512 18.384V18.384M33.144 18.816C32.784 18.816 32.448 18.696 32.148 18.54C32.124 18.504 32.148 18.42 32.16 18.372L32.904 17.244H32.964L33.108 17.28L33.156 17.316L33.216 18.672C33.216 18.72 33.18 18.804 33.144 18.816V18.816M31.272 15.996C31.224 15.996 31.152 15.924 31.152 15.876C31.224 15.696 31.308 15.516 31.428 15.36L31.98 15.216L32.58 15.96H32.556C32.1898 16.0082 31.8213 16.0362 31.452 16.044L31.272 15.996V15.996M32.952 14.448C33 14.472 33.036 14.544 33.036 14.592V14.7C32.676 14.772 32.316 14.844 31.992 14.94C31.968 14.892 31.956 14.832 31.968 14.82C32.256 14.616 32.592 14.496 32.952 14.46V14.448M32.772 15.936L32.172 15.168C32.46 15.096 32.76 15.024 33.048 14.976L33.096 15.864L32.772 15.936V15.936M32.712 16.176V16.188C32.681 16.23 32.6529 16.2741 32.628 16.32L32.58 16.356L32.136 16.236L32.712 16.164V16.176M33.516 16.008H33.468H33.528H33.516M33.276 15.816L33.228 14.94C33.588 14.868 33.948 14.82 34.308 14.772C34.2977 14.8065 34.2814 14.839 34.26 14.868L33.72 15.708L33.264 15.828L33.276 15.816M34.416 14.976C34.44 14.928 34.512 14.88 34.548 14.892C34.704 15.012 34.848 15.156 34.968 15.312C34.644 15.432 34.308 15.528 33.984 15.624L34.416 14.964V14.976M33.216 14.664V14.58C33.216 14.532 33.24 14.448 33.288 14.436C33.516 14.436 33.732 14.484 33.936 14.556L33.216 14.664V14.664M33.18 14.424H33.24H33.18V14.424M30.036 15.924C29.916 15.888 29.952 15.852 30.024 15.828C30.264 15.732 30.516 15.636 30.804 15.552C30.732 15.696 30.684 15.864 30.636 16.032C30.4331 16.0143 30.2323 15.9781 30.036 15.924V15.924M31.056 16.272H31.596L32.532 16.524L32.544 16.572C32.544 16.608 32.544 16.704 32.568 16.752L32.544 16.788L31.296 17.328C31.248 17.352 31.164 17.352 31.14 17.328C31.0627 17.104 31.0222 16.869 31.02 16.632C31.02 16.512 31.02 16.392 31.044 16.272H31.056M31.188 17.484V17.484ZM31.26 17.604C31.26 17.568 31.32 17.508 31.368 17.484L32.616 16.968L32.664 16.992L32.748 17.088C32.748 17.1 32.772 17.136 32.76 17.148L32.016 18.288C31.992 18.324 31.908 18.372 31.872 18.36C31.6149 18.1609 31.4057 17.9067 31.26 17.616V17.604M32.004 18.444H31.968H32.004V18.444M33.204 18.828V18.828ZM34.764 18.18C34.74 18.204 34.644 18.156 34.608 18.12L33.732 17.088V17.04C33.7549 17.0015 33.7749 16.9614 33.792 16.92C33.804 16.92 33.828 16.884 33.852 16.896L35.16 17.256C35.196 17.256 35.268 17.304 35.28 17.352C35.16 17.664 35.004 17.952 34.776 18.18H34.764M35.364 17.052C35.352 17.088 35.244 17.1 35.196 17.088L33.9 16.728L33.876 16.68C33.8756 16.6278 33.8716 16.5757 33.864 16.524C33.864 16.512 33.864 16.476 33.888 16.464L35.148 15.984C35.196 15.972 35.28 15.984 35.316 16.008C35.4149 16.3472 35.4313 16.7051 35.364 17.052V17.052M35.196 15.696C35.196 15.744 35.136 15.816 35.088 15.816L35.172 15.792L33.828 16.308L33.78 16.284C33.7504 16.2422 33.7183 16.2021 33.684 16.164L33.66 16.104L33.78 15.924C34.188 15.816 34.632 15.684 35.1 15.516L35.196 15.696V15.696M38.712 13.776C38.136 14.184 38.412 14.688 38.04 14.784C37.92 14.772 37.176 14.904 37.056 14.952C36.816 14.724 36.564 14.532 36.18 14.424C36.9 14.136 38.052 13.824 38.712 13.764V13.776M36.336 14.82C36.216 14.88 35.868 15.012 35.424 15.168C35.3109 14.997 35.178 14.8399 35.028 14.7C35.592 14.676 36.06 14.7 36.336 14.82V14.82M42.66 7.404C41.772 8.292 41.88 9.624 41.988 10.668C41.784 10.824 41.532 10.944 41.364 11.028C41.268 9.756 41.412 7.836 42.66 7.404V7.404M20.496 7.86C20.34 7.656 20.124 7.356 20.292 7.14C20.412 6.984 20.676 7.104 20.82 7.176C20.94 7.248 21.936 7.776 22.212 7.848C24.216 8.352 26.748 7.608 28.332 9.048C28.416 9.132 28.464 9.192 28.452 9.288C26.124 7.704 22.608 10.056 20.496 7.848V7.86M22.38 10.416C22.548 10.524 22.62 10.776 22.788 10.932C23.088 11.424 23.652 11.592 23.952 12.024C23.8514 12.0311 23.7502 12.023 23.652 12C23.46 11.964 23.376 11.904 23.22 11.832C23.124 11.7 22.908 11.652 22.74 11.736C22.608 11.76 22.236 11.736 21.984 11.676C22.032 11.28 22.416 10.896 22.38 10.416V10.416M20.04 14.7L20.652 15.384C20.208 15.384 19.788 15.36 19.38 15.336C19.356 15.288 19.332 15.252 19.344 15.216C19.416 15.06 19.512 14.904 19.62 14.772L20.04 14.712V14.7M23.664 14.868L23.856 15.216C23.556 15.264 23.232 15.288 22.896 15.324L23.376 14.916C23.496 14.82 23.628 14.832 23.664 14.868V14.868M23.244 14.772L22.56 15.348L22.044 15.372L22.32 14.58C22.656 14.592 22.992 14.616 23.304 14.652C23.292 14.688 23.28 14.736 23.244 14.772V14.772M23.076 18.3C22.836 18.48 22.56 18.612 22.272 18.684C22.212 18.684 22.116 18.6 22.092 18.48L21.828 17.04L21.84 17.004C21.8908 16.9861 21.9392 16.9619 21.984 16.932H22.032L23.016 18.012C23.112 18.132 23.112 18.252 23.076 18.3V18.3M21 15.78C21.012 15.78 21.024 15.804 21 15.828L20.94 15.912C20.94 15.936 20.916 15.936 20.892 15.924L19.812 15.54L20.82 15.564L21 15.768V15.78M22.08 15.72C22.0475 15.6877 22.0113 15.6595 21.972 15.636C21.96 15.636 21.948 15.612 21.96 15.588L21.984 15.54L22.356 15.516L22.128 15.708C22.128 15.72 22.104 15.732 22.08 15.708V15.72M21.828 15.372H21.54L21.384 14.58L21.528 14.568H22.116L21.828 15.372V15.372M21.192 14.592L21.336 15.384H20.916L20.268 14.664L21.192 14.592V14.592M21.348 15.552V15.576C21.2976 15.5948 21.2493 15.6189 21.204 15.648H21.156L21.084 15.564H21.36L21.348 15.552M19.284 15.312L19.308 15.288C19.3012 15.3008 19.2932 15.3128 19.284 15.324V15.312M19.176 15.684C19.2 15.636 19.332 15.588 19.452 15.624L20.832 16.104L20.856 16.152C20.8476 16.1995 20.8436 16.2477 20.844 16.296L20.808 16.332L19.368 16.596C19.236 16.62 19.128 16.548 19.116 16.5L19.092 16.284C19.0945 16.0813 19.1228 15.8796 19.176 15.684V15.684M19.2 16.98C19.2 16.92 19.284 16.812 19.416 16.788L20.844 16.524C20.86 16.5231 20.8747 16.5329 20.88 16.548L20.928 16.656V16.704L19.776 17.616C19.656 17.7 19.536 17.688 19.5 17.652C19.3688 17.4433 19.2678 17.217 19.2 16.98V16.98M19.548 17.712L19.512 17.664L19.548 17.712V17.712M19.812 18.036C19.788 18 19.812 17.844 19.908 17.76L21.036 16.86C21.048 16.836 21.072 16.836 21.084 16.86L21.204 16.944C21.228 16.944 21.24 16.968 21.228 16.992L20.748 18.36C20.688 18.504 20.58 18.552 20.52 18.54C20.257 18.4136 20.0175 18.2432 19.812 18.036V18.036M20.652 18.6C20.6357 18.5974 20.6196 18.5934 20.604 18.588L20.64 18.6H20.652M20.988 18.72C20.94 18.684 20.868 18.564 20.916 18.432L21.408 17.064C21.408 17.04 21.432 17.028 21.456 17.04H21.588C21.612 17.04 21.624 17.064 21.624 17.088L21.888 18.516C21.912 18.66 21.852 18.744 21.804 18.768L21.6 18.792C21.384 18.792 21.18 18.756 20.988 18.708V18.72M23.352 18.072C23.3613 18.0609 23.3693 18.0488 23.376 18.036L23.352 18.072V18.072M23.436 17.976C23.388 18 23.256 17.988 23.16 17.892L22.2 16.812C22.176 16.8 22.176 16.776 22.188 16.764C22.2119 16.7346 22.2321 16.7024 22.248 16.668C22.248 16.644 22.284 16.644 22.296 16.656L23.688 17.148C23.832 17.208 23.868 17.316 23.856 17.364C23.7487 17.5821 23.6113 17.784 23.448 17.964L23.436 17.976M23.856 17.34L23.928 17.196C23.9056 17.2448 23.8816 17.2928 23.856 17.34V17.34M24.012 16.896C24 16.944 23.868 17.016 23.748 16.968L22.356 16.464L22.332 16.428L22.344 16.308L22.38 16.272L23.844 16.044C23.988 16.032 24.084 16.092 24.084 16.14L24.096 16.284C24.096 16.5 24.072 16.692 24.024 16.884L24.012 16.896M24.012 15.672C24.012 15.72 23.928 15.828 23.808 15.852L22.356 16.08C22.3465 16.0838 22.3358 16.0833 22.3266 16.0787C22.3175 16.0742 22.3107 16.0659 22.308 16.056C22.2929 16.0061 22.2728 15.9578 22.248 15.912V15.864L22.68 15.504C23.1 15.468 23.508 15.42 23.916 15.36L24.012 15.672V15.672M24.756 14.916C24.852 14.94 24.876 15.012 24.756 15.036L24.348 15.132L24.156 14.772C24.372 14.808 24.588 14.856 24.756 14.916V14.916M22.392 14.388L22.452 14.208C22.5 14.076 22.62 14.028 22.668 14.04C22.908 14.148 23.112 14.292 23.304 14.472C22.9972 14.4323 22.689 14.4043 22.38 14.388H22.392M22.2 13.872C22.236 13.896 22.296 14.028 22.26 14.148L22.176 14.388C21.96 14.364 21.744 14.352 21.516 14.364H21.348L21.288 14.064C21.264 13.92 21.336 13.824 21.384 13.812L21.6 13.788C21.804 13.788 22.008 13.824 22.2 13.872V13.872M20.916 13.896C20.964 13.896 21.072 13.98 21.096 14.1L21.132 14.304C21.0097 14.1898 20.8973 14.0653 20.796 13.932L20.916 13.896V13.896M20.832 14.412L20.136 14.496C20.088 14.4 20.088 14.316 20.112 14.28L20.472 14.064C20.592 14.184 20.7 14.304 20.832 14.412V14.412M19.836 14.52V14.52ZM18.312 15.084L18.972 14.892C18.9075 15.0161 18.8513 15.1444 18.804 15.276L18.312 15.216C18.192 15.192 18.216 15.12 18.312 15.096V15.084M62.352 7.98C62.304 8.016 62.28 8.076 62.328 8.088C62.4 8.1 62.448 8.124 62.532 8.208C62.58 8.232 62.568 8.16 62.556 8.112C62.508 7.992 62.412 7.932 62.352 7.98V7.98" fill="black" fill-rule="evenodd" clip-rule="evenodd"/>
<path id="Vector_3" d="M60.552 18.648H58.188C58.164 18.804 58.344 18.924 58.452 19.044H61.032L61.752 18.696C61.872 18.384 61.632 18.108 61.632 17.856C61.68 17.1 61.26 16.356 61.032 15.672C61.176 15.516 61.356 15.168 61.596 15.264C62.148 16.116 62.256 17.22 62.16 18.312C62.1 18.576 61.644 18.828 61.656 19.08C61.656 19.164 62.268 19.128 62.52 18.912C62.556 18.744 62.88 18.528 63 18.504C63.108 18.168 62.928 18.18 62.952 17.976C62.9906 17.3813 62.9503 16.7841 62.832 16.2L62.784 16.176C62.664 15.876 62.94 15.432 63.06 15.144L63.876 15.072C63.78 14.352 63.516 13.584 63.36 12.828C63.456 12.66 63.636 12.516 63.804 12.42C64.668 11.844 63.912 10.92 63.876 10.212C63.732 9.84 63.216 9.552 63.18 9.144C63.276 9.228 63.36 9.192 63.384 9.204C63.624 9.024 63.624 8.784 63.504 8.484C63.864 8.028 64.104 7.824 64.176 7.68C64.152 7.296 63.54 6.744 63.192 6.744C62.988 6.864 62.844 7.092 62.46 7.38C62.448 7.404 62.004 7.224 61.86 7.38C61.74 7.476 61.776 7.824 62.016 8.016C61.992 8.112 61.968 8.136 61.908 8.256C61.884 8.316 61.872 8.376 61.908 8.4C61.992 8.472 62.016 8.592 61.956 8.76C61.896 8.94 62.1 9.072 62.172 9.108L62.232 9.168C62.256 9.36 61.572 9.732 61.572 9.888C61.524 10.356 61.224 10.308 60.948 11.856C60.984 12.228 60.972 12.564 60.948 12.864C60.588 13.788 60.312 14.316 60.072 14.988C59.88 15.54 60.984 17.148 60.996 18.228C60.756 18.588 60.564 18.54 60.552 18.648V18.648M62.352 16.992C62.2812 16.8298 62.2523 16.6523 62.268 16.476C62.364 16.38 62.544 16.452 62.628 16.44C62.748 16.956 62.772 17.028 62.34 16.992H62.352M62.352 9.36C62.388 9.336 62.412 9.264 62.436 9.24C62.796 9 62.544 9.168 62.184 8.976C62.064 8.916 62.064 8.808 62.076 8.64C62.1 8.448 62.016 8.4 61.98 8.34L62.076 8.148C62.16 8.028 62.232 7.764 62.28 7.692C62.88 7.716 62.748 7.98 62.76 8.028C62.808 8.16 63.06 8.436 63.18 8.532C63.144 8.892 62.856 8.676 62.988 9.012C62.952 9.648 62.208 9.564 61.884 10.092C61.848 9.564 62.304 9.564 62.352 9.36V9.36M61.668 12.072C61.836 12.228 62.004 12.408 62.124 12.432C62.22 12.66 61.944 12.684 61.848 12.792C61.632 12.828 61.548 12.588 61.416 12.696C61.38 12.72 61.248 12.696 61.248 12.66C61.32 12.468 61.524 12.192 61.668 12.072V12.072M60.24 15.288C60.156 14.856 60.744 14.172 61.128 12.84C61.284 12.792 61.368 13.152 61.608 13.008C61.944 13.02 61.8 13.932 62.124 13.356C62.124 13.092 62.1 12.816 62.304 12.672C62.52 12.624 62.664 12.744 62.676 12.936L62.34 13.464C62.976 13.488 62.136 14.508 62.976 14.328C62.952 14.712 62.748 15.78 62.604 15.732C62.484 15.132 62.388 15.372 62.388 15.552C62.412 15.792 62.412 15.972 62.544 16.152C62.508 16.212 62.328 16.212 62.28 16.212C61.8 15.54 61.824 14.604 61.524 13.872C61.464 13.872 61.404 13.932 61.404 13.992C61.368 14.436 61.2 15.072 60.84 15.288C60.6 15.408 61.332 15.336 60.732 15.612C60.972 15.768 60.756 15.972 60.504 15.972C60.384 15.708 60.288 15.492 60.252 15.288H60.24M60.876 16.764C60.7665 16.6019 60.674 16.429 60.6 16.248L60.96 16.104C61.056 16.224 61.164 16.44 61.176 16.644C61.104 16.68 60.996 16.764 60.876 16.764V16.764M49.668 9.612C49.62 8.904 49.908 8.304 49.584 7.548C49.584 7.236 49.8 6.996 49.752 6.708L49.212 6.828C49.128 7.428 49.032 7.632 49.116 8.184C49.248 8.832 49.32 9.42 49.668 9.624V9.612M44.136 11.592C46.176 11.016 47.604 10.524 49.296 9.804C48.588 8.292 48.744 7.86 48.816 6.888C48.816 6.888 47.94 6.9 46.944 6.648C45.744 7.404 44.364 10.152 44.136 11.592V11.592M51.168 12.024C51.06 11.916 51.228 12.096 51.168 12.024V12.024M53.64 7.44C52.776 6.84 52.104 5.46 51.168 5.556C51.072 4.536 50.628 2.808 52.032 0.984C52.224 0.9 52.512 0.864 52.632 0.732C52.056 0.672 51.3 1.032 50.748 0.72C50.748 0.72 51 1.164 51.3 1.224C51.108 1.488 50.724 1.68 50.952 2.136C50.484 2.424 50.664 2.832 50.808 3.06C50.568 3.3 50.424 3.744 50.736 4.008C50.352 4.416 50.832 4.764 50.94 4.908C50.748 5.316 50.94 5.628 50.94 5.628C50.94 5.928 50.4 6.348 50.22 6.492C49.98 7.188 50.076 8.592 50.1 9.516C51.396 8.904 52.656 8.316 53.64 7.44V7.44M38.88 32.04C38.88 31.32 38.4 30.456 37.716 30.048C37.5525 29.9468 37.3676 29.8852 37.176 29.868C37.344 29.88 37.56 29.868 37.776 29.784C37.78 29.7837 37.784 29.7837 37.788 29.784C38.472 29.472 39.3 28.596 39.3 27.108C39.3 26.028 38.82 25.128 38.028 24.552C37.2802 24.0681 36.397 23.8368 35.508 23.892H28.512V25.668H30.084V34.608H28.524V36.384H33.48V34.608H31.92V30.672H35.352C36.54 30.672 36.996 31.464 37.02 32.124L37.104 36.372H40.524V34.608H38.928L38.88 32.052V32.04M35.724 28.956H31.92V25.668H35.52C35.892 25.668 36.36 25.656 36.72 25.836C37.152 26.064 37.572 26.544 37.572 27.336C37.572 28.248 36.732 28.956 35.724 28.956V28.956M27.9 40.776H25.524V47.904H26.58V44.82H27.756C29.46 44.82 30.228 43.944 30.228 42.816C30.228 42.816 29.508 40.776 27.9 40.776V40.776M27.852 43.896H26.592V41.688H27.9C28.86 41.688 29.148 42.252 29.148 42.768C29.148 43.488 28.644 43.896 27.852 43.896V43.896M34.332 40.728L31.176 47.904H32.316L33.18 45.804H36.3L37.2 47.904H38.364L35.076 40.728H34.332V40.728M33.6 44.88L34.692 42.06L35.88 44.88H33.6V44.88M49.188 40.776H50.244V47.904H49.188V40.776M54.636 42.444C54.636 41.94 55.14 41.604 55.86 41.604C56.388 41.604 57.024 41.76 57.684 42.336V41.172C57.1641 40.8525 56.5662 40.6823 55.956 40.68C54.528 40.68 53.592 41.412 53.592 42.576C53.592 44.532 56.952 44.7 56.952 46.176C56.952 46.572 56.556 47.076 55.692 47.076C54.924 47.076 54.216 46.716 53.64 46.044V47.34C54.288 47.784 54.96 48 55.812 48C57.072 48 57.996 47.184 57.996 46.068C57.996 43.788 54.636 43.812 54.636 42.444V42.444M45.456 46.488C44.88 45.6 44.46 44.94 43.776 44.52C44.5383 44.2804 45.0515 43.5669 45.036 42.768C45.036 41.532 44.088 40.776 42.576 40.776H40.68V47.904H41.76V44.808H42.216C42.756 44.808 43.212 44.976 44.196 46.44L45.144 47.904H46.404L45.852 47.076C45.7141 46.884 45.5821 46.6879 45.456 46.488V46.488M42.456 43.884H41.76V41.652H42.456C43.5 41.652 43.92 42.06 43.932 42.732C43.932 43.332 43.608 43.884 42.456 43.884V43.884" fill="black" fill-rule="evenodd" clip-rule="evenodd"/>
</g>
<defs>
<clipPath id="clip0_0_4">
<rect width="84" height="48" fill="white"/>
</clipPath>
</defs>
</svg>
