<svg preserveAspectRatio="none" width="100%" height="100%" overflow="visible" style="display: block;" viewBox="0 0 60 36" fill="none" xmlns="http://www.w3.org/2000/svg">
<g id="SVG">
<path id="Vector" d="M0.867857 31.3929H59.5929V30.3H21.825C20.8607 30.7607 19.6393 30.7286 18.675 30.3H7.21071C6.12019 30.7714 4.88339 30.7714 3.79286 30.3H0.867857V31.3929V31.3929M1.875 25.2857C1.76786 25.6286 1.70357 25.9821 1.70357 26.3571C1.62902 27.7584 2.33416 29.0862 3.53674 29.8093C4.73932 30.5323 6.24282 30.5323 7.4454 29.8093C8.64798 29.0862 9.35312 27.7584 9.27857 26.3571C9.27857 25.9071 9.19286 25.4893 9.04286 25.0821C9.48214 25.0071 9.9 24.9107 10.3286 24.8036C10.5214 24.7393 10.5214 24.6536 10.3607 24.6107C9.78019 24.4339 9.18992 24.2908 8.59286 24.1821C7.88201 23.1709 6.72183 22.5708 5.48571 22.575C5.00357 22.575 4.54286 22.6714 4.125 22.8321L4.10357 22.8214C3.92579 22.5051 3.90987 22.1229 4.06071 21.7929C4.44643 21.1607 5.30357 20.9143 6 20.8607C6.23571 20.85 6.80357 20.8714 6.86786 20.9464C7.00714 21.0536 7.24286 21.0964 7.48929 21C7.73571 21.0964 7.8 21.1607 8.06786 21.2464C10.4893 22.0714 13.1571 22.5107 15.8679 22.0071C16.2964 22.4143 16.5214 23.1107 16.8107 23.5929C16.8964 23.7214 16.9929 23.5071 18.3214 23.4536H19.875C18.8357 23.5714 17.9464 24.1607 17.4107 24.9964C16.5857 25.2643 15.9429 25.5214 15.6964 25.6607C15.4071 25.8429 15.3536 25.9393 15.6964 26.0357C16.125 26.1429 16.5321 26.2179 16.9393 26.2714C16.9117 26.4415 16.8974 26.6134 16.8964 26.7857C16.8964 28.6438 18.4027 30.15 20.2607 30.15C22.1188 30.15 23.625 28.6438 23.625 26.7857C23.625 26.1964 23.4643 25.6607 23.1964 25.1786C23.625 25.0393 24.075 24.8679 24.5464 24.6857C24.9107 24.8143 25.1571 25.0286 25.425 25.3286C25.6393 25.5857 26.1214 25.4893 26.4 25.4143C26.8714 25.2964 26.9357 24.9214 26.9357 24.5036C26.9357 24.3107 26.9464 24.1179 27.0429 23.9679C27.5786 22.725 29.7643 22.5643 30.8786 22.2857C30.8786 22.2857 30.2893 22.9929 29.8821 23.1429C29.7964 24.9643 29.1 26.5286 29.025 28.2536C29.5393 28.275 29.5179 28.8643 29.6464 29.2071C29.4964 29.5286 29.25 29.2071 29.0143 29.3143C28.2214 28.8643 29.2071 28.1571 28.5536 27.6C28.8857 26.1536 29.4429 24.75 29.4 23.2071C29.1857 23.2286 29.1 23.4643 29.0143 23.6357C28.8643 25.0821 28.4464 26.4107 28.0714 27.75C28.2429 27.8357 28.5321 27.9214 28.5107 28.1786C28.0071 28.4893 28.5321 29.0036 28.3286 29.3571H23.1321L22.5536 29.8714H30.5143L30.6 29.5821C29.4214 28.3607 29.85 26.5286 30.4071 25.1464L31.7679 23.2929C32.9036 22.8536 33.6 21.4714 34.8 21.0214C34.8 21.6107 34.0607 21.8571 33.6643 22.2C33.2357 23.1857 31.9179 23.2929 31.7357 24.3857C32.2393 24.975 32.9893 25.35 33.6214 25.8964C34.2643 26.2929 34.0393 27.1393 34.5643 27.5571C34.65 27.6857 34.5643 27.8786 34.4143 27.9857C33.8571 28.1143 33.8786 28.4893 34.2107 28.8C34.425 28.9929 34.6714 29.2607 34.6393 29.3571H30.9643C30.9643 29.5179 31.1143 29.5821 31.275 29.8714H51.5679C51.7179 29.5821 51.3857 29.25 51.2464 28.9607C49.8107 28.425 49.8214 27.0643 49.7464 25.575C49.7464 25.5107 49.65 25.3607 49.6714 25.0607C48.958 23.6835 48.7028 22.1145 48.9429 20.5821L49.2643 19.9607C49.5536 19.5429 49.2321 19.3179 49.4464 18.8786L53.7321 18.0536C53.8071 18.0107 53.7857 17.8393 53.7 17.7536L52.4036 18C51.0209 17.3993 49.8041 16.4729 48.8571 15.3C49.1679 13.1893 49.0179 11.475 48.8036 10.3286C49.425 9.81429 49.9393 9.32143 49.9393 9.32143C50.3679 9.57857 50.4643 9.46071 50.5179 9.32143C50.4536 9.23571 49.8107 8.96786 49.9179 8.68929C50.325 8.79643 50.4107 8.66786 50.475 8.44286L50.1964 8.33571H50.1857L50.2286 8.19643C50.3143 8.025 50.7 8.18571 50.8393 8.14286C51.0964 7.98214 50.8071 7.75714 50.8929 7.54286C50.3036 7.03929 49.2214 7.02857 48.5786 6.55714C48.375 6.18214 48.2893 6.02143 48.0857 5.87143C47.6599 5.70562 47.2017 5.63965 46.7464 5.67857C46.575 5.73214 46.2429 6.04286 46.2429 6.04286C45.5679 6.18214 45.1714 5.96786 44.7 5.68929C44.7 5.68929 44.8071 6.225 45.3321 6.43929C44.8607 6.63214 44.6464 7.02857 44.5821 7.53214C43.9286 7.66071 43.9071 8.30357 43.9821 8.60357C43.4571 8.925 43.5107 9.33214 43.6929 9.76071C43.2214 10.0821 43.2964 10.5321 43.425 10.8857C43.0393 11.1214 43.425 11.8071 43.4893 12.2036C44.625 11.9679 46.0607 14.475 48.0964 14.7857C48.4821 12.9964 47.9893 12.1071 47.5607 11.2286C47.8821 11.0357 48.2464 10.7679 48.6 10.4786C48.8143 11.625 48.9536 13.2643 48.7179 15.15L48.6857 15.1071C48.5571 15.1071 48.4286 15.0214 48.3214 14.9786C48.3429 15.0429 48.5786 15.4071 48.5357 15.4821C48.5357 15.4821 47.8714 15.9107 46.5536 15.375C46.2 16.1893 41.7 18.2036 41.7 18.2036C41.8546 19.2402 42.3349 20.2008 43.0714 20.9464C44.0357 21.6643 45.0643 22.0393 46.2857 22.2857C46.5429 22.95 47.3679 25.1464 47.4536 25.5C47.5286 25.8643 47.7321 25.8643 47.7321 25.8643C47.8393 26.0143 48.2357 26.7214 48.2679 27.0536L48.375 28.2429C48.4071 28.5107 48.7714 28.3071 48.8357 28.5429L48.675 29.3464H35.175C35.3571 28.3929 34.875 27.5786 35.1214 26.7321C34.5857 25.7893 33.1071 25.1357 33.3536 23.8929C34.0714 22.9071 36.3 21.9429 35.7964 20.7536C37.8321 19.725 38.8929 21.4393 40.8107 21.3107C41.475 21.2679 42.2143 21.2036 42.825 21.0214C42.0414 20.3304 41.4102 19.4839 40.9714 18.5357C37.0069 20.1938 32.8962 21.478 28.6929 22.3714L28.3607 22.2643C28.0286 22.3071 23.2286 23.3893 21.9536 23.8821C21.6227 23.6854 21.2602 23.5476 20.8821 23.475H20.9893C21.3964 23.475 22.0179 23.2607 22.4571 23.1C24.3214 22.425 25.0071 19.7679 25.8429 18.0857C26.5821 20.7 28.275 20.9143 29.2714 20.5929L29.3571 21.4179C29.6143 22.0607 30.2143 21.3857 30.8571 21.1286C30.7447 20.7625 30.6729 20.3853 30.6429 20.0036C31.0393 19.8 31.2536 19.6607 31.425 19.5536C31.4786 20.175 31.5214 20.7643 31.3393 21.075L33.5464 20.4857C33.975 18.5571 35.1321 15.9 37.1893 13.95C35.4259 13.16 33.3695 13.4161 31.8536 14.6143C29.2607 15.4393 29.1643 19.0071 29.2393 20.2393C28.7893 20.325 26.9143 20.9893 26.025 17.7321C26.5393 16.4786 27.525 15.0857 28.6286 14.0036C28.725 13.9179 28.6179 13.7893 28.3929 13.9179C26.1643 15.45 25.3607 18.1286 24.1607 20.3893C23.3092 21.8122 21.7197 22.6236 20.0679 22.4786C17.7107 22.4464 16.5536 19.9714 15.4714 18.375C13.8107 14.7429 9.50357 16.05 6.31071 15.2679C6.12857 15.1821 5.775 14.1321 5.27143 14.1643C4.90714 14.1964 5.25 14.5714 5.03571 14.7C4.63929 14.5286 4.29643 14.2286 3.79286 14.3143C3.48214 14.3786 3.39643 14.7107 3.41786 15.0107C3.675 16.1679 4.91786 16.6714 5.83929 17.0893C6.19286 17.625 6.05357 19.4464 5.76429 20.0893C5.38929 20.7857 3.88929 20.5286 3.58929 22.1464C3.525 22.4679 3.6 22.7464 3.72857 23.0143C3.14788 23.3233 2.65699 23.7773 2.30357 24.3321C1.66071 24.4821 1.05 24.6536 0.471429 24.8679C0.310714 24.9107 0.310714 25.0071 0.514286 25.05C0.953571 25.1464 1.41429 25.2107 1.875 25.275V25.2857M49.2321 16.2857C50.0077 17.0568 50.9244 17.6716 51.9321 18.0964L49.5 18.5357C49.7786 17.5071 48.8357 17.1107 49.2321 16.2857V16.2857M49.4893 7.96071C49.5857 7.91786 49.8429 8.01429 49.95 8.04643C50.0036 8.05714 49.9821 8.19643 49.95 8.31429C49.7893 8.35714 49.5429 8.27143 49.5107 8.18571C49.4679 8.08929 49.4036 7.99286 49.4893 7.96071V7.96071M49.5107 8.58214C49.5429 8.76429 49.6179 8.96786 49.725 9.11786C49.725 9.20357 49.2643 9.61071 48.75 10.05C48.6214 9.41786 48.4929 8.97857 48.4607 8.80714C48.675 8.65714 49.2107 8.50714 49.5107 8.59286V8.58214M47.1857 6.35357C47.2714 6.32143 47.4643 6.38571 47.5071 6.41786C47.5607 6.46071 47.5286 6.61071 47.5179 6.66429C47.5179 6.71786 47.2821 6.825 47.2821 6.825C47.2821 6.825 47.0679 6.66429 47.0679 6.61071C47.0679 6.54643 47.1857 6.35357 47.1857 6.35357V6.35357M47.475 11.0571C47.1241 10.4194 46.9642 9.69407 47.0143 8.96786C47.2929 8.96786 47.7 9.13929 48.225 8.90357C48.225 8.90357 48.3964 9.39643 48.5464 10.2107C48.1607 10.5429 47.7429 10.8643 47.475 11.0571V11.0571M43.8321 21.1286C42.975 20.7 43.5107 21.0643 43.7571 20.8714C45.1393 21.5143 45.8357 21.3643 46.8643 21.2357C47.0143 21.4286 47.2179 21.6 47.2179 21.8571C45.9536 22.2214 44.9679 21.75 43.8321 21.1393V21.1286M48.7929 27.9214C48.7179 27.2571 48.6857 26.775 48.3643 26.4643C48.1286 25.8 47.4214 23.9464 46.9179 22.2857C47.2179 21.9857 47.4536 22.1357 47.6679 22.9714C47.85 23.6357 48.0964 24.1929 48.2679 24.75C48.5036 25.3071 48.675 26.0571 48.8571 26.4429C48.8571 26.4429 49.0071 26.475 49.1036 26.6893C49.5429 27.9214 49.6607 28.1143 49.5857 28.7143C49.6929 29.175 50.3357 28.8 50.2821 29.3571H48.9H49.5107C49.0821 28.9179 49.3821 28.2536 48.7929 27.9214V27.9214M21.9107 29.025C21.5184 29.3151 21.0564 29.4963 20.5714 29.55C20.5286 29.5286 20.4857 29.4429 20.475 29.3679L20.4 27.6536C20.4 27.6321 20.4321 27.6107 20.4536 27.6C20.4857 27.6 20.6036 27.5464 20.6571 27.5143C20.6786 27.5143 20.7214 27.5036 20.7321 27.5143L21.8679 28.8214C21.9 28.875 21.9429 28.9821 21.9107 29.025V29.025M20.1643 29.5714C19.7207 29.556 19.2872 29.4347 18.9 29.2179C18.8679 29.175 18.8893 29.0679 18.9214 29.0143L19.8643 27.5786C19.8643 27.5571 19.9071 27.5571 19.9286 27.5679L20.1107 27.6107C20.1321 27.6107 20.175 27.6429 20.175 27.6643L20.2607 29.3786C20.2607 29.4429 20.2179 29.55 20.1643 29.5714V29.5714M17.7857 25.9929C17.7321 25.9714 17.6357 25.8857 17.6357 25.8429C17.7214 25.6071 17.8393 25.3821 17.9786 25.1786L18.6857 24.9857L19.4357 25.95H19.4143C18.9214 26.0143 18.45 26.0464 18.0214 26.0571L17.7857 25.9929V25.9929M19.9286 24.0321C19.9821 24.0429 20.025 24.1393 20.0357 24.2036V24.3321C19.575 24.4286 19.125 24.525 18.6964 24.6321C18.675 24.5786 18.6536 24.5143 18.6857 24.4821C19.061 24.233 19.4912 24.0786 19.9393 24.0321H19.9286M19.6929 25.9071L18.9214 24.9321L20.0464 24.6857L20.1 25.8214L19.6929 25.9071V25.9071M19.6179 26.2071V26.2393L19.5107 26.4C19.5107 26.4214 19.4679 26.4536 19.4464 26.4429L18.8893 26.2929C19.125 26.2714 19.3714 26.25 19.6179 26.2071V26.2071M20.6464 25.9929C20.6464 26.0143 20.6036 26.0143 20.5821 26.0143L20.6571 25.9929H20.6464M20.325 25.7679L20.2714 24.6429C20.7321 24.5571 21.1929 24.4821 21.6321 24.4286C21.6258 24.4737 21.6113 24.5172 21.5893 24.5571L20.9036 25.6071L20.325 25.7679V25.7679M21.7714 24.6857C21.8036 24.6321 21.9 24.5786 21.9536 24.5786C22.1571 24.7393 22.3393 24.9214 22.4893 25.1143L21.225 25.5214L21.7714 24.6857V24.6857M20.25 24.3V24.1929C20.25 24.1286 20.2929 24.0107 20.3357 24C20.625 24.0107 20.9036 24.0643 21.1607 24.1607C20.8607 24.1929 20.5607 24.2357 20.25 24.3V24.3M20.2071 24H20.2929H20.2071V24M16.2214 25.8964C16.0714 25.8536 16.1143 25.8 16.2 25.7679L17.1857 25.4143C17.0981 25.6107 17.0299 25.8153 16.9821 26.025C16.7251 26.0061 16.4704 25.9631 16.2214 25.8964V25.8964M17.5071 26.325C17.7321 26.3464 17.9679 26.3357 18.2036 26.325L19.3821 26.6571C19.4036 26.6571 19.4143 26.7 19.4143 26.7214C19.4143 26.7643 19.4143 26.8821 19.4357 26.9357C19.4357 26.9571 19.4143 26.9786 19.4036 26.9893L17.8179 27.6857C17.7643 27.7071 17.6464 27.7071 17.6143 27.6643C17.5187 27.3811 17.4681 27.0846 17.4643 26.7857C17.4643 26.625 17.4857 26.475 17.5071 26.325V26.325M17.6893 27.8786V27.8786ZM17.775 28.0393C17.775 27.9857 17.85 27.9107 17.9036 27.8786L19.4893 27.225C19.5 27.2143 19.5321 27.225 19.5536 27.2571L19.6607 27.3643C19.6714 27.3857 19.6929 27.4393 19.6821 27.45L18.7286 28.8964C18.6964 28.9393 18.6 29.0036 18.5464 28.9821C18.2195 28.7293 17.9524 28.4073 17.7643 28.0393H17.775M18.7071 29.1107L18.6643 29.0893L18.7071 29.1107V29.1107M20.25 29.5821H20.2607H20.25V29.5821M22.2321 28.7571C22.1893 28.7893 22.0714 28.7357 22.0286 28.6821L20.9036 27.375L20.9143 27.3107L21 27.1714C21 27.15 21.0429 27.1286 21.0643 27.1286L22.725 27.5893C22.7786 27.6 22.8643 27.6536 22.875 27.7071C22.7357 28.1036 22.5214 28.4679 22.2321 28.7679V28.7571M22.9821 27.3321C22.9607 27.375 22.8429 27.3857 22.7679 27.375L21.1179 26.9143C21.0964 26.9143 21.0964 26.8714 21.0964 26.85L21.0857 26.6679C21.0857 26.6464 21.0857 26.5929 21.1071 26.5821L22.7143 25.9821C22.7679 25.9607 22.8857 25.9714 22.9286 26.0036C23.057 26.4347 23.079 26.8906 22.9929 27.3321H22.9821M22.7786 25.6179C22.7786 25.6607 22.6929 25.7464 22.6393 25.7679L22.7464 25.7357L21.0321 26.3786C21.0107 26.3786 20.9893 26.3679 20.9786 26.3464L20.85 26.1964C20.8393 26.1857 20.8179 26.1429 20.8286 26.1214L20.9786 25.9071C21.5036 25.7571 22.05 25.5857 22.6607 25.3714L22.7786 25.6071V25.6179M27.2464 23.1536C26.4964 23.6893 26.85 24.3321 26.3893 24.45C25.9648 24.4753 25.5445 24.5472 25.1357 24.6643C24.825 24.375 24.5036 24.1286 24.0214 24C24.9429 23.6143 26.4107 23.25 27.2464 23.1536V23.1536M24.2143 24.4929C24.0536 24.5679 23.6357 24.7286 23.0571 24.9321C22.9126 24.717 22.7436 24.5192 22.5536 24.3429C23.2821 24.3107 23.8607 24.3429 24.2143 24.4929V24.4929M32.25 15.0643C31.125 16.2 31.275 17.8929 31.4036 19.2214C31.1464 19.4143 30.825 19.5643 30.6107 19.6821C30.4929 18.0536 30.6643 15.6107 32.25 15.075V15.0643M4.09286 15.6429C3.9 15.3857 3.62143 15 3.83571 14.7429C3.99643 14.5393 4.31786 14.7 4.51071 14.7857C4.67143 14.8607 5.925 15.5357 6.26786 15.6429C8.81786 16.275 12.0321 15.3429 14.0571 17.1643C14.1643 17.2607 14.2286 17.3464 14.2071 17.475C11.2393 15.45 6.78214 18.4393 4.09286 15.6429V15.6429M6.48214 18.9C6.69643 19.0286 6.78214 19.3607 7.01786 19.5536C7.39286 20.1857 8.1 20.4 8.48571 20.9464C8.35626 20.9548 8.22629 20.9439 8.1 20.9143C7.85357 20.8607 7.75714 20.7964 7.55357 20.7C7.44643 20.5179 7.16786 20.4643 6.95357 20.5821C6.77143 20.6143 6.3 20.5821 5.98929 20.5071C6.04286 19.9929 6.525 19.5107 6.48214 18.9V18.9M3.53571 24.3429L4.30714 25.2C3.75 25.2 3.20357 25.1786 2.7 25.1464C2.64643 25.0821 2.63571 25.0393 2.63571 25.0071C2.74286 24.7929 2.85 24.6 3 24.4286L3.53571 24.3429V24.3429M8.12143 24.5571C8.21786 24.6964 8.29286 24.8464 8.36786 24.9857C7.98214 25.05 7.58571 25.0929 7.15714 25.125L7.75714 24.6107C7.90714 24.4821 8.07857 24.5036 8.12143 24.5571V24.5571M7.58571 24.4286L6.72857 25.1571L6.06429 25.1893L6.41786 24.1929C6.84643 24.2036 7.275 24.2357 7.67143 24.2786C7.65 24.3321 7.63929 24.3857 7.59643 24.4286H7.58571M7.37143 28.9179C7.08214 29.1321 6.72857 29.3036 6.35357 29.4107C6.28929 29.4 6.16071 29.3036 6.12857 29.1429L5.78571 27.3214C5.78571 27.3 5.78571 27.2786 5.81786 27.2679C5.88113 27.2451 5.94211 27.2164 6 27.1821C6.02143 27.1607 6.04286 27.1821 6.06429 27.1821L7.30714 28.5536C7.41429 28.7036 7.41429 28.875 7.38214 28.9179H7.37143M4.74643 25.7036C4.76786 25.7143 4.76786 25.7464 4.74643 25.7679C4.71802 25.8011 4.6929 25.8369 4.67143 25.875C4.67143 25.9071 4.63929 25.9071 4.61786 25.8964L3.21429 25.4036L4.5 25.4357L4.73571 25.7036H4.74643M6.11786 25.6286C6.07599 25.5873 6.02921 25.5513 5.97857 25.5214C5.95714 25.5214 5.95714 25.5 5.95714 25.4786L5.98929 25.4036L6.47143 25.3821L6.18214 25.6286C6.17143 25.6286 6.13929 25.65 6.11786 25.6286V25.6286M5.79643 25.2H5.43214L5.23929 24.1821L5.41071 24.1714L6.16071 24.1821L5.79643 25.2V25.2M4.99286 24.2036L5.175 25.2107H4.63929L3.825 24.3107C4.2 24.2571 4.58571 24.225 4.99286 24.2036V24.2036M5.19643 25.4357L5.18571 25.4571C5.12229 25.4796 5.06127 25.5083 5.00357 25.5429C4.98214 25.5536 4.96071 25.5429 4.93929 25.5321L4.85357 25.4357H5.19643V25.4357M2.57143 25.125L2.59286 25.0821C2.58701 25.097 2.57984 25.1114 2.57143 25.125V25.125M2.43214 25.5857C2.46429 25.5321 2.625 25.4679 2.78571 25.5107L4.52143 26.1321C4.54286 26.1321 4.56429 26.1643 4.56429 26.1857C4.55219 26.2421 4.54502 26.2995 4.54286 26.3571C4.54286 26.3786 4.52143 26.4 4.5 26.4L2.67857 26.7429C2.49643 26.775 2.37857 26.6893 2.35714 26.625L2.325 26.3571C2.325 26.0893 2.36786 25.8321 2.43214 25.5857V25.5857M2.46429 27.225C2.46429 27.1607 2.57143 27.0214 2.73214 26.9893L4.54286 26.6464C4.56429 26.6464 4.58571 26.6571 4.59643 26.6786C4.61786 26.7321 4.61786 26.7536 4.66071 26.8179C4.66071 26.8393 4.66071 26.8607 4.63929 26.8714L3.19286 28.0393C3.04286 28.1464 2.87143 28.125 2.83929 28.0821C2.67395 27.8158 2.54767 27.5272 2.46429 27.225V27.225M2.89286 28.1679L2.85 28.1036L2.89286 28.1679V28.1679M3.23571 28.5857C3.20357 28.5321 3.23571 28.3393 3.35357 28.2321L4.8 27.0857C4.81071 27.0643 4.83214 27.0536 4.85357 27.075L5.01429 27.1929C5.04643 27.2036 5.04643 27.225 5.03571 27.2571L4.41429 28.9929C4.35 29.1643 4.2 29.2393 4.14643 29.2286C3.80773 29.069 3.49953 28.8514 3.23571 28.5857V28.5857M4.29643 29.2929L4.23214 29.2714L4.29643 29.2929V29.2929M4.725 29.4321C4.67143 29.4 4.59643 29.2393 4.63929 29.0893L5.28214 27.3429C5.28214 27.3214 5.30357 27.3 5.325 27.3107L5.49643 27.3214C5.51786 27.3214 5.52857 27.3429 5.53929 27.3643L5.87143 29.1857C5.90357 29.3679 5.81786 29.4857 5.76429 29.5071C5.67857 29.5179 5.59286 29.5393 5.49643 29.5393C5.23578 29.5364 4.97656 29.5004 4.725 29.4321V29.4321M7.725 28.6286C7.74075 28.6158 7.75511 28.6015 7.76786 28.5857L7.73571 28.6286H7.725M7.84286 28.5C7.78929 28.5321 7.60714 28.5214 7.5 28.3929L6.25714 27.0214C6.23945 27.0049 6.23506 26.9785 6.24643 26.9571C6.27564 26.9207 6.30078 26.8812 6.32143 26.8393C6.33214 26.8179 6.36429 26.8071 6.38571 26.8179L8.15357 27.4607C8.33571 27.525 8.37857 27.675 8.36786 27.7286C8.22857 28.0071 8.04643 28.2643 7.84286 28.4893V28.5M8.37857 27.7071L8.46429 27.5143L8.37857 27.7071V27.7071M8.58214 27.1286C8.56071 27.1821 8.4 27.2679 8.23929 27.2143L6.47143 26.5821C6.45 26.5821 6.43929 26.5607 6.43929 26.5286L6.45 26.3893C6.45 26.3571 6.47143 26.3464 6.49286 26.3464L8.34643 26.0357C8.52857 26.0143 8.64643 26.1 8.66786 26.1643L8.68929 26.3464C8.68929 26.6143 8.64643 26.8714 8.58214 27.1179V27.1286M8.58214 25.5643C8.58214 25.6393 8.475 25.7786 8.30357 25.8L6.46071 26.0893C6.43929 26.0893 6.41786 26.0893 6.40714 26.0571C6.38905 25.9938 6.36389 25.9327 6.33214 25.875C6.32143 25.8536 6.33214 25.8321 6.34286 25.8214L6.88929 25.35C7.41277 25.3085 7.93455 25.2477 8.45357 25.1679L8.57143 25.5643H8.58214M9.525 24.6107C9.63214 24.6536 9.68571 24.7286 9.525 24.7714C9.375 24.8143 9.18214 24.8464 8.98929 24.8786C8.925 24.7286 8.83929 24.5786 8.75357 24.4286C9.03214 24.4821 9.3 24.5357 9.525 24.6107V24.6107M6.50357 23.9357L6.57857 23.7214C6.65357 23.55 6.79286 23.4857 6.86786 23.5071C7.15714 23.6357 7.43571 23.8286 7.67143 24.0429C7.28571 24 6.9 23.9571 6.50357 23.9357V23.9357M6.26786 23.2821C6.32143 23.325 6.39643 23.4964 6.35357 23.6464L6.24643 23.9357L5.41071 23.9036L5.19643 23.925L5.12143 23.5286C5.08929 23.3464 5.175 23.2393 5.22857 23.2071C5.325 23.2071 5.41071 23.175 5.50714 23.175C5.76429 23.175 6.02143 23.2179 6.25714 23.2821H6.26786M4.63929 23.3143C4.70357 23.3143 4.84286 23.4214 4.875 23.5821L4.91786 23.8286C4.76151 23.6842 4.6181 23.5265 4.48929 23.3571C4.53866 23.3408 4.58871 23.3265 4.63929 23.3143V23.3143M4.53214 23.9679L3.65357 24.075C3.58929 23.9679 3.58929 23.8607 3.62143 23.8071C3.76071 23.7 3.92143 23.6143 4.08214 23.5286C4.22143 23.6786 4.36071 23.8286 4.53214 23.9679V23.9679M3.25714 24.1071C3.2541 24.1112 3.25049 24.1148 3.24643 24.1179L3.25714 24.1071V24.1071M1.32857 24.8357C1.56429 24.7393 1.85357 24.6643 2.175 24.5893C2.08929 24.7393 2.01429 24.9107 1.95 25.0714L1.31786 24.9857C1.16786 24.9643 1.21071 24.8786 1.31786 24.825L1.32857 24.8357M55.0071 29.3679H52.0071C51.9643 29.5714 52.2 29.7214 52.3286 29.8821H55.6179L56.5286 29.4321C56.6893 29.0357 56.3571 28.6821 56.3786 28.3607C56.4321 27.4071 55.8964 26.4643 55.6179 25.5857C55.8 25.3929 56.025 24.9429 56.325 25.0607C57.0321 26.1536 57.1607 27.5464 57.0429 28.9393C56.9679 29.2821 56.3893 29.5821 56.4 29.9143C56.4107 30.0214 57.1821 29.9786 57.4929 29.7107C57.5571 29.4964 57.9643 29.2179 58.0929 29.175C58.2429 28.7679 58.0179 28.7786 58.05 28.5321C58.0998 27.7717 58.0494 27.008 57.9 26.2607L57.825 26.2286C57.6857 25.8536 58.0393 25.275 58.1786 24.9214L59.2286 24.825C59.1 23.8929 58.7679 22.9286 58.5643 21.975C58.6929 21.7607 58.9286 21.5786 59.1321 21.45C60.2357 20.7214 59.2607 19.5536 59.2393 18.6536C59.0464 18.1821 58.3929 17.8179 58.3393 17.2929C58.4679 17.4 58.575 17.3571 58.6071 17.3679C58.9179 17.1536 58.9071 16.8321 58.7464 16.4464C59.2286 15.8786 59.5179 15.6107 59.6036 15.4286C59.5714 14.9571 58.8107 14.25 58.3607 14.25C58.0929 14.3893 57.9214 14.6786 57.4286 15.0643C57.4179 15.0857 56.8393 14.8607 56.6679 15.0429C56.4964 15.1821 56.5607 15.6214 56.8714 15.8679L56.7321 16.1679C56.7 16.2429 56.6786 16.3179 56.7321 16.35C56.8286 16.4464 56.8607 16.5857 56.7964 16.8C56.7214 17.0357 56.9786 17.2071 57.0643 17.2393C57.0857 17.2393 57.1071 17.2714 57.1393 17.3143C57.1714 17.5714 56.3036 18.0321 56.3036 18.2357C56.2393 18.825 55.875 18.7714 55.5 20.7429C55.539 21.167 55.539 21.5938 55.5 22.0179C55.0714 23.1964 54.6964 23.8714 54.3964 24.7179C54.15 25.425 55.5536 27.45 55.575 28.8429C55.2536 29.3036 55.0179 29.2393 54.9964 29.3786L55.0071 29.3679M57.2786 27.2571C57.1913 27.0547 57.1545 26.8341 57.1714 26.6143C57.3 26.4964 57.5357 26.5821 57.6429 26.5607C57.7929 27.2143 57.825 27.3107 57.2786 27.2571V27.2571M57.2786 17.5607C57.3321 17.5393 57.3643 17.4429 57.3857 17.4C57.8464 17.1107 57.525 17.325 57.0643 17.0786C56.925 17.0036 56.9143 16.8643 56.9357 16.65C56.9679 16.4036 56.8607 16.3607 56.8286 16.275C56.8071 16.2429 56.8821 16.125 56.9357 16.0393C57.0429 15.8679 57.15 15.5357 57.1929 15.45C57.9536 15.4821 57.7821 15.825 57.8036 15.8786C57.8679 16.05 58.1893 16.4036 58.3393 16.5214C58.2964 16.9821 57.9321 16.7036 58.0929 17.1214C58.05 17.925 57.0964 17.8286 56.7 18.4821C56.6464 17.8393 57.2357 17.8393 57.2893 17.5607H57.2786M56.4214 21.0214C56.625 21.2036 56.85 21.45 57 21.4821C57.1071 21.7607 56.775 21.8036 56.6571 21.9214C56.3679 21.9643 56.2607 21.6643 56.0893 21.8036C56.0571 21.8357 55.8857 21.8036 55.8857 21.7607C55.9714 21.525 56.2286 21.1714 56.4214 21.0107V21.0214M54.6107 25.1036C54.5036 24.5464 55.2429 23.6893 55.7357 21.9964C55.9393 21.9214 56.0464 22.3821 56.325 22.2107C56.775 22.2107 56.5821 23.3679 56.9893 22.6393C56.9893 22.3179 56.9786 21.9536 57.225 21.7821C57.5036 21.7179 57.6857 21.8679 57.7071 22.1143L57.2786 22.7786C58.0929 22.8107 57.0214 24.1071 58.0929 23.8714C58.05 24.3643 57.7929 25.725 57.6 25.6607C57.4607 24.9107 57.3429 25.2214 57.3429 25.4464C57.375 25.7357 57.3643 25.9821 57.5357 26.2071C57.4821 26.2714 57.2679 26.2714 57.2036 26.2821C56.5929 25.425 56.625 24.2357 56.2393 23.3036C56.1643 23.3036 56.0786 23.3786 56.0893 23.4429C56.0464 24.0107 55.8214 24.825 55.3607 25.0929C55.0714 25.2643 56.0036 25.1571 55.2429 25.5214C55.5214 25.7036 55.2643 25.9714 54.9429 25.9714C54.7996 25.6957 54.6881 25.4045 54.6107 25.1036V25.1036M55.4143 26.9786C55.3071 26.8393 55.1357 26.475 55.0607 26.3143L55.5 26.1321C55.65 26.2929 55.7786 26.5607 55.8 26.8179C55.7036 26.8714 55.5643 26.9679 55.4143 26.9786V26.9786" fill="black" fill-rule="evenodd" clip-rule="evenodd"/>
<path id="Vector_2" d="M41.1643 17.8929C41.1 16.9821 41.475 16.2214 41.0571 15.2679C41.0571 14.8714 41.3357 14.5607 41.2607 14.1964L40.575 14.3679C40.4679 15.1179 40.3607 15.3643 40.4571 16.0821C40.6286 16.8964 40.725 17.6464 41.1643 17.8929V17.8929M34.125 20.4C36.3619 19.797 38.5561 19.0453 40.6929 18.15C39.7929 16.2214 39.9964 15.6643 40.0714 14.4321C40.0714 14.4321 38.9679 14.4536 37.6929 14.1107C36.1821 15.0857 34.4143 18.5786 34.125 20.4107L34.125 20.4M46.2107 15.1393C45.1071 14.3893 44.2607 12.6214 43.0607 12.7393C42.9536 11.4536 42.375 9.24643 44.1643 6.92143C44.4 6.81429 44.775 6.77143 44.925 6.6C44.1857 6.53571 43.2321 6.98571 42.5357 6.58929C42.5357 6.58929 42.8571 7.14643 43.2321 7.23214C42.9857 7.575 42.5036 7.81071 42.8036 8.4C42.1929 8.75357 42.4179 9.27857 42.6107 9.56786C42.3107 9.87857 42.1286 10.425 42.525 10.7679C42.0321 11.2929 42.6321 11.7321 42.7821 11.9143C42.5357 12.4393 42.7821 12.8357 42.7821 12.8357C42.7607 13.2107 42.0964 13.7571 41.85 13.9286C41.5607 14.8071 41.6786 16.5857 41.7214 17.7643C43.35 16.9929 44.9464 16.2429 46.2107 15.1393V15.1393" fill="black" fill-rule="evenodd" clip-rule="evenodd"/>
</g>
</svg>
