<svg preserveAspectRatio="none" width="100%" height="100%" overflow="visible" style="display: block;" viewBox="0 0 20 20" fill="none" xmlns="http://www.w3.org/2000/svg">
<g id="SVG">
<path id="Vector" fill-rule="evenodd" clip-rule="evenodd" d="M2 3.26465C1.72386 3.26465 1.5 3.48851 1.5 3.76465C1.5 4.04079 1.72386 4.26465 2 4.26465H18C18.2761 4.26465 18.5 4.04079 18.5 3.76465C18.5 3.48851 18.2761 3.26465 18 3.26465H2V3.26465M1.5 10C1.5 9.72386 1.72386 9.5 2 9.5H18C18.2761 9.5 18.5 9.72386 18.5 10C18.5 10.2761 18.2761 10.5 18 10.5H2C1.72386 10.5 1.5 10.2761 1.5 10V10M1.57129 16.2363C1.57129 15.9602 1.79515 15.7363 2.07129 15.7363H18.0713C18.3474 15.7363 18.5713 15.9602 18.5713 16.2363C18.5713 16.5125 18.3474 16.7363 18.0713 16.7363H2.07129C1.79515 16.7363 1.57129 16.5125 1.57129 16.2363V16.2363" fill="var(--fill-0, black)"/>
</g>
</svg>
