<svg preserveAspectRatio="none" width="100%" height="100%" overflow="visible" style="display: block;" viewBox="0 0 24 24" fill="none" xmlns="http://www.w3.org/2000/svg">
<g id="SVG" clip-path="url(#clip0_0_14)">
<path id="Vector" d="M12 2.13778C15.2121 2.13778 15.5925 2.15002 16.861 2.20791C18.0339 2.26144 18.6709 2.45737 19.0948 2.62214C19.6563 2.84034 20.0571 3.10106 20.478 3.522C20.8989 3.94294 21.1597 4.34372 21.3779 4.90519C21.5426 5.32908 21.7386 5.96606 21.7921 7.13892C21.85 8.40745 21.8623 8.78789 21.8623 12C21.8623 15.2121 21.85 15.5925 21.7921 16.861C21.7386 18.0339 21.5427 18.6709 21.3779 19.0948C21.1597 19.6563 20.899 20.0571 20.478 20.478C20.0571 20.8989 19.6563 21.1597 19.0949 21.3779C18.671 21.5426 18.034 21.7386 16.8611 21.7921C15.5928 21.85 15.2123 21.8623 12 21.8623C8.78775 21.8623 8.40731 21.85 7.13902 21.7921C5.96616 21.7386 5.32917 21.5427 4.90523 21.3779C4.34372 21.1597 3.94298 20.899 3.52205 20.478C3.10111 20.0571 2.84039 19.6563 2.62214 19.0949C2.45742 18.671 2.26144 18.034 2.20791 16.8611C2.15002 15.5926 2.13778 15.2122 2.13778 12.0001C2.13778 8.78803 2.15002 8.40755 2.20791 7.13906C2.26144 5.9662 2.45737 5.32922 2.62214 4.90528C2.84034 4.34377 3.10106 3.94303 3.522 3.52209C3.94294 3.10116 4.34372 2.84044 4.90519 2.62219C5.32908 2.45747 5.96606 2.26148 7.13892 2.20795C8.40745 2.15002 8.78794 2.13778 12 2.13778V2.13778M12 -0.0297187C8.73291 -0.0297187 8.32327 -0.0158906 7.04016 0.0426563C5.75972 0.101062 4.88527 0.304453 4.12003 0.601828C3.32897 0.909234 2.65809 1.32056 1.98933 1.98938C1.32056 2.65814 0.909234 3.32906 0.601781 4.12008C0.304406 4.88527 0.101062 5.75972 0.0426563 7.04016C-0.0158906 8.32327 -0.0297187 8.73291 -0.0297187 12C-0.0297187 15.2671 -0.0158906 15.6767 0.0426563 16.9598C0.101062 18.2403 0.304453 19.1147 0.601828 19.88C0.909234 20.671 1.32056 21.3419 1.98938 22.0107C2.65814 22.6794 3.32906 23.0908 4.12008 23.3982C4.88531 23.6956 5.75972 23.8989 7.0402 23.9574C8.32331 24.0159 8.73295 24.0298 12 24.0298C15.2671 24.0298 15.6768 24.0159 16.9599 23.9574C18.2403 23.899 19.1148 23.6956 19.88 23.3982C20.6711 23.0908 21.342 22.6795 22.0107 22.0107C22.6795 21.3419 23.0908 20.671 23.3983 19.88C23.6956 19.1147 23.899 18.2403 23.9574 16.9598C24.016 15.6767 24.0298 15.2671 24.0298 12C24.0298 8.73291 24.016 8.32327 23.9574 7.04016C23.899 5.75972 23.6956 4.88527 23.3983 4.12003C23.0909 3.32897 22.6795 2.65809 22.0107 1.98933C21.342 1.32056 20.671 0.909234 19.88 0.601781C19.1147 0.304406 18.2403 0.101062 16.9598 0.0426563C15.6767 -0.0158906 15.2671 -0.0297187 12 -0.0297187V-0.0297187" fill="var(--fill-0, black)"/>
<path id="Vector_2" d="M12 5.82258C8.5883 5.82258 5.82258 8.5883 5.82258 12C5.82258 15.4117 8.5883 18.1774 12 18.1774C15.4117 18.1774 18.1774 15.4117 18.1774 12C18.1774 8.5883 15.4117 5.82258 12 5.82258V5.82258M12 16.0099C9.78539 16.0099 7.99008 14.2146 7.99008 12C7.99008 9.78539 9.78539 7.99008 12 7.99008Cnan nan 16.0099 9.78539 16.0099 12C16.0099 14.2146 14.2146 16.0099 12 16.0099V16.0099" fill="var(--fill-0, black)"/>
<path id="Vector_3" d="M16.9779 5.5785C16.9779 6.37522 17.6248 7.02206 18.4215 7.02206C19.2182 7.02206 19.8651 6.37522 19.8651 5.5785C19.8651 4.78178 19.2182 4.13494 18.4215 4.13494C17.6248 4.13494 16.9779 4.78178 16.9779 5.5785V5.5785" fill="var(--fill-0, black)"/>
</g>
<defs>
<clipPath id="clip0_0_14">
<rect width="24" height="24" fill="white"/>
</clipPath>
</defs>
</svg>
