<svg preserveAspectRatio="none" width="100%" height="100%" overflow="visible" style="display: block;" viewBox="0 0 24 24" fill="none" xmlns="http://www.w3.org/2000/svg">
<g id="SVG">
<path id="Vector" opacity="0.3" d="M10.111 1.243H8.879L8.048 4.441L7.183 1.243H5.899C6.155 1.997 6.422 2.757 6.68 3.511C7.071 4.647 7.315 5.504 7.425 6.087V9.385H8.645V6.087L10.111 1.243V1.243M13.369 7.42V5.296C13.369 4.647 13.259 4.173 13.029 3.866C12.726 3.451 12.297 3.244 11.746 3.244C11.198 3.244 10.77 3.451 10.467 3.866C10.233 4.174 10.122 4.647 10.122 5.296V7.42C10.122 8.066 10.233 8.544 10.467 8.848C10.771 9.262 11.198 9.469 11.746 9.469C12.297 9.469 12.726 9.262 13.029 8.848C13.259 8.544 13.369 8.066 13.369 7.42V7.42M12.271 7.628C12.271 8.189 12.1 8.47 11.747 8.47C11.393 8.47 11.223 8.189 11.223 7.628V5.076C11.223 4.514 11.392 4.234 11.746 4.234Cnan nan 12.27 4.514 12.27 5.076L12.271 7.628V7.628M17.436 9.386V3.317H16.336V7.955C16.091 8.299 15.861 8.47 15.64 8.47C15.494 8.47 15.409 8.382 15.384 8.213C15.371 8.176 15.371 8.042 15.371 7.785V3.317H14.272V8.115C14.272 8.543 14.31 8.832 14.37 9.017C14.481 9.324 14.725 9.468 15.078 9.468C15.479 9.468 15.897 9.225 16.334 8.723V9.385H17.436V9.386" fill="var(--fill-0, black)"/>
<path id="Vector_2" d="M10.115 1.111H8.882L8.052 4.308L7.186 1.111H5.902C6.159 1.865 6.426 2.625 6.683 3.379C7.075 4.514 7.318 5.371 7.43 5.954V9.252H8.65V5.956L10.115 1.111V1.111M13.374 7.288V5.163C13.374 4.515 13.264 4.04 13.032 3.734C12.728 3.32 12.301 3.112 11.75 3.112C11.203 3.112 10.774 3.319 10.47 3.734C10.236 4.041 10.126 4.515 10.126 5.163V7.288C10.126 7.933 10.236 8.411 10.47 8.715C10.774 9.129 11.203 9.336 11.75 9.336C12.301 9.336 12.729 9.128 13.032 8.715C13.264 8.411 13.374 7.933 13.374 7.288V7.288M12.271 7.495C12.271 8.056 12.103 8.337 11.749 8.337Cnan nan 11.225 8.056 11.225 7.495V4.943C11.225 4.381 11.395 4.103 11.749 4.103Cnan nan 12.271 4.381 12.271 4.943V7.495V7.495M17.438 9.253V3.185H16.338V7.822C16.095 8.166 15.862 8.337 15.645 8.337C15.495 8.337 15.41 8.25 15.387 8.08C15.372 8.044 15.372 7.91 15.372 7.652V3.185H14.275V7.983C14.275 8.411 14.311 8.702 14.375 8.885C14.483 9.193 14.727 9.337 15.082 9.337C15.481 9.337 15.9 9.093 16.335 8.591V9.253H17.438V9.253M18.029 15.412C17.666 15.412 17.482 15.689 17.482 16.245V16.801H18.571V16.245C18.571 15.689 18.389 15.412 18.029 15.412V15.412M13.993 15.412C13.814 15.412 13.631 15.498 13.45 15.677V19.335C13.631 19.518 13.814 19.603 13.993 19.603C14.305 19.603 14.465 19.335 14.465 18.795V16.233C14.465 15.689 14.306 15.412 13.993 15.412V15.412" fill="var(--fill-0, black)"/>
<path id="Vector_3" d="M20.688 12.36C20.469 11.404 19.686 10.697 18.745 10.592C16.512 10.342 14.253 10.342 12.004 10.342C9.754 10.342 7.494 10.342 5.263 10.592C4.321 10.697 3.538 11.403 3.318 12.36C3.003 13.725 3 15.212 3 16.617C3 18.018 3 19.507 3.313 20.87C3.534 21.827 4.315 22.533 5.258 22.64C7.488 22.889 9.748 22.891 11.998 22.889C14.247 22.891 16.506 22.889 18.738 22.64C19.68 22.533 20.463 21.828 20.684 20.87C20.998 19.507 21 18.019 21 16.615C21 15.211 21.002 13.725 20.688 12.36V12.36M8.134 13.587H6.83V20.511H5.62V13.587H4.341V12.452H8.132V13.587H8.134V13.587M11.42 20.511H10.331V19.856C9.899 20.351 9.488 20.592 9.088 20.592C8.737 20.592 8.496 20.449 8.387 20.146C8.327 19.965 8.291 19.677 8.291 19.254V14.508H9.378V18.927C9.378 19.182 9.378 19.314 9.389 19.351C9.414 19.518 9.498 19.603 9.643 19.603C9.861 19.603 10.089 19.437 10.331 19.095V14.508H11.42V20.511V20.511M15.554 18.709C15.554 19.264 15.516 19.664 15.444 19.918C15.299 20.364 15.007 20.592 14.574 20.592C14.187 20.592 13.815 20.377 13.451 19.929V20.511H12.362V12.452H13.451V15.084C13.803 14.652 14.175 14.433 14.574 14.433C15.008 14.433 15.3 14.661 15.444 15.112C15.516 15.353 15.554 15.75 15.554 16.317V18.709V18.709M19.658 17.706H17.482V18.771C17.482 19.326 17.666 19.602 18.038 19.602C18.306 19.602 18.463 19.457 18.524 19.167C18.535 19.108 18.547 18.868 18.547 18.431H19.657V18.59C19.657 18.94 19.644 19.183 19.634 19.292C19.598 19.532 19.513 19.751 19.381 19.943C19.08 20.378 18.632 20.594 18.065 20.594C17.496 20.594 17.063 20.389 16.749 19.979C16.52 19.68 16.401 19.205 16.401 18.568V16.464C16.401 15.822 16.506 15.353 16.738 15.05C17.05 14.638 17.484 14.434 18.039 14.434C18.585 14.434 19.018 14.639 19.324 15.05C19.552 15.353 19.66 15.822 19.66 16.464V17.704H19.658V17.706" fill="var(--fill-0, black)"/>
</g>
</svg>
