<svg preserveAspectRatio="none" width="100%" height="100%" overflow="visible" style="display: block;" viewBox="0 0 40 30" fill="none" xmlns="http://www.w3.org/2000/svg">
<g id="Container">
<path id="Symbol" d="M23.375 6.75C23.375 6.10045 23.2009 5.50112 22.8527 4.95201C22.5179 4.41629 22.0658 4.00781 21.4967 3.72656V5.38393L23.3449 7.23214C23.365 7.07143 23.375 6.91071 23.375 6.75V6.75M25.2533 6.75C25.2533 7.41295 25.1161 8.07255 24.8415 8.7288L25.9766 9.86384C26.4922 8.88616 26.75 7.84821 26.75 6.75C26.75 5.69866 26.519 4.70424 26.0569 3.76674C25.6083 2.86272 24.9855 2.09431 24.1886 1.4615C23.3917 0.828683 22.4944 0.398438 21.4967 0.170759V1.71763C22.2199 1.93192 22.8661 2.28516 23.4353 2.77734C24.0045 3.26953 24.4464 3.85379 24.7612 4.53013C25.0893 5.23326 25.2533 5.97321 25.2533 6.75V6.75M14.2042 0L13.25 0.954241L16.7958 4.5H13.25V9H16.2533L20 12.7467V7.70424L23.1942 10.8984C22.6585 11.3069 22.0926 11.6016 21.4967 11.7824V13.3292C22.5212 13.0949 23.442 12.6429 24.2589 11.9732L25.7958 13.5L26.75 12.5458L14.2042 0V0M20 0.753348L18.433 2.32031L20 3.88728V0.753348V0.753348" fill="var(--fill-0, black)"/>
</g>
</svg>
