<svg preserveAspectRatio="none" width="100%" height="100%" overflow="visible" style="display: block;" viewBox="0 0 9 7.50335" fill="none" xmlns="http://www.w3.org/2000/svg">
<g id="Container">
<path id="Symbol" d="M0.748326 3.75167C0.748326 4.2606 0.847098 4.74777 1.04464 5.21317C1.23549 5.66183 1.50335 6.05859 1.84821 6.40346C2.19308 6.74833 2.58984 7.01618 3.0385 7.20703C3.50391 7.40458 3.99107 7.50335 4.5 7.50335C5.00893 7.50335 5.49609 7.40458 5.9615 7.20703C6.41016 7.01618 6.80692 6.74833 7.15179 6.40346C7.49665 6.05859 7.76451 5.66183 7.95536 5.21317C8.1529 4.74777 8.25167 4.2606 8.25167 3.75167C8.25167 3.24275 8.1529 2.75558 7.95536 2.29018C7.76451 1.84152 7.49665 1.44475 7.15179 1.09989C6.80692 0.755022 6.41016 0.487165 5.9615 0.296317C5.49609 0.0987723 5.00893 0 4.5 0C3.99107 0 3.50391 0.0987723 3.0385 0.296317C2.58984 0.487165 2.19308 0.755022 1.84821 1.09989C1.50335 1.44475 1.23549 1.84152 1.04464 2.29018C0.847098 2.75558 0.748326 3.24275 0.748326 3.75167V3.75167" fill="var(--fill-0, black)"/>
</g>
</svg>
